M48
;Layer_Color=9474304
;FILE_FORMAT=4:4
METRIC
;TYPE=PLATED
T1F00S00C0.3000
T2F00S00C0.7000
T3F00S00C0.8000
T4F00S00C0.9000
T5F00S00C1.0000
T6F00S00C1.3000
T7F00S00C3.0000
%
T01
X02583500Y00209500
X02447300Y00204450
X02447000Y00154000
X02446000Y00140950
X02401271Y00226340
X02390000
X02180000Y00225000
X02172000
X02139300Y00207750
X02127320Y00140950
X02127900Y00128250
X02017050Y00140950
X02016000Y00153000
X02016550Y00204450
X01963500Y00224600
X01954000
X01777300Y00006345
X01590000Y00128250
Y00141950
Y00153650
X01596251Y00206950
X01618900Y00230000
X01627272Y00229812
X01635870Y00229310
X01472250Y00204450
X01471000Y00154000
Y00141950
X01421500Y00224600
X01412000
X01206820
X01197900
X01163750Y00206000
X01147000Y00140950
Y00128250
X01017000Y00142000
X01018000Y00153000
X01040300Y00204450
X00996650Y00226340
X00987000
X01007000Y00378600
X00917000
X00584450Y00235000
X00590950Y00226340
X00577029
X00570000Y00200490
X00558050Y00144650
Y00132950
X00558250Y00120250
X00772300Y00006345
X00442050Y00133050
Y00145650
X00461771Y00196450
X00434650Y00225000
X00420000Y00224600
X00338000Y00250000
X00325000Y00259600
Y00179350
X00338250Y00125000
X00230160Y00119250
X00230000Y00131950
X00240000Y00197700
X00246822Y00224600
X00255000Y00230000
X00138750Y00210000
X00235000Y00627400
X00325000Y00604900
Y00560000
X00313000Y00709000
X00305000Y00747000
X00335000
X00364000Y00709000
X00602252Y00721000
X00660000
X00674999Y00654999
X00675000Y00645000
X00740000Y00629000
X00748500Y00661951
X00811000Y00660000
X00853400Y00636900
Y00627400
X00856760Y00555740
X00820000Y00582980
X00764500Y00579522
X00747000Y00468000
X00842000Y00437000
X00612500Y00564500
X00969353Y00592164
X01012950Y00592800
X01042270Y00610000
X01043250Y00696000
X00972943Y00722500
X00973000Y00470000
X00974600Y00448400
X01017700Y00450000
Y00470300
X01077250Y00482600
X01135000Y00483150
X00922785Y00489584
X01405000Y00495950
X01435000
X01532000Y00603000
X01829000Y00605000
X01815500Y00657500
X01814999Y00700000
X01880750Y00624250
X01993590Y00666590
X01993996Y00680999
X01992260Y00508260
X02111250Y00665250
X02110750Y00700000
X02446696Y00688608
X02447000Y00627000
X02450000Y00499200
T02
X02483350Y00040000
X02508750
X02530340
X02555740
X02578600
X02604000
X02636000Y00084100
Y00109500
Y00131090
Y00156490
Y00179350
Y00204750
Y00226340
Y00251740
Y00274600
Y00300000
X02601900Y00343000
X02576500
X02554910
X02529510
X02506650
X02481250
X02636000Y00388100
X02459660Y00343000
X02434260
X02411400
X02386000
X02354000Y00300000
Y00274600
Y00251740
Y00226340
Y00204750
Y00179350
Y00156490
Y00131090
Y00109500
Y00084100
X02388100Y00040000
X02413500
X02435090
X02460490
X02172000
X02146600
X02123740
X02098340
X02076750
X02204000Y00084100
Y00109500
Y00131090
Y00156490
Y00179350
Y00204750
Y00226340
Y00251740
Y00274600
Y00300000
X02169900Y00343000
X02144500
X02122910
X02097510
X02074650
X02204000Y00388100
X02354000
X02049250Y00343000
X02027660
X02002260
X01979400
X01954000
X01922000Y00300000
Y00274600
Y00251740
Y00226340
Y00204750
Y00179350
Y00156490
Y00131090
Y00109500
Y00084100
X01956100Y00040000
X01981500
X02003090
X02028490
X02051350
X01922000Y00388100
X01662000
X01627900Y00343000
X01602500
X01580910
X01555510
X01532650
X01507250
X01485660
X01460260
X01437400
X01412000
X01380000Y00300000
Y00274600
Y00251740
Y00226340
Y00204750
Y00179350
Y00156490
Y00131090
Y00109500
Y00084100
X01414100Y00040000
X01439500
X01461090
X01486490
X01509350
X01534750
X01556340
X01581740
X01604600
X01630000
X01662000Y00084100
Y00109500
Y00131090
Y00156490
Y00179350
Y00204750
Y00226340
Y00251740
Y00274600
Y00300000
X01380000Y00388100
X01230000
X01197900Y00343000
X01172500
X01150910
X01125510
X01102650
X01077250
X01055660
X01030260
X01007400
X00982000
X00950000Y00300000
Y00274600
Y00251740
Y00226340
Y00204750
Y00179350
Y00156490
Y00131090
Y00109500
Y00084100
X00984100Y00040000
X01009500
X01031090
X01056490
X01079350
X01104750
X01126340
X01151740
X01174600
X01200000
X01230000Y00084100
Y00109500
Y00131090
Y00156490
Y00179350
Y00204750
Y00226340
Y00251740
Y00274600
Y00300000
X00950000Y00388100
X00620000Y00389350
Y00366490
Y00341090
X00588910Y00300000
X00563510
X00540650
X00515250
X00493660
X00620000Y00250000
Y00224600
Y00201740
Y00176340
Y00154750
Y00129350
Y00106490
Y00081090
X00590000Y00040000
X00564600
X00541740
X00516340
X00494750
X00469350
X00446490
X00421090
X00390000Y00081090
Y00106490
Y00129350
Y00154750
Y00176340
Y00201740
Y00224600
Y00250000
X00420000Y00300000
X00445400
X00468260
X00390000Y00341090
Y00366490
Y00389350
X00280000
Y00366490
Y00341090
X00248910Y00300000
X00223510
X00200650
X00175250
X00153660
X00128260
X00105400
X00280000Y00250000
Y00224600
Y00201740
Y00176340
Y00154750
Y00129350
Y00106490
Y00081090
X00250000Y00040000
X00224600
X00201740
X00176340
X00154750
X00129350
X00106490
X00081090
X00050000Y00081090
Y00106490
Y00129350
Y00154750
Y00176340
Y00201740
Y00224600
Y00250000
X00080000Y00300000
X00050000Y00341090
Y00366490
Y00389350
Y00414750
Y00436340
Y00461740
Y00484600
Y00510000
X00080090Y00560000
X00105490
X00128350
X00153750
X00175340
X00200740
X00223600
X00249000
X00280000Y00510000
Y00484600
Y00461740
Y00436340
Y00414750
X00390000
Y00436340
Y00461740
Y00484600
Y00510000
X00421090Y00560000
X00446490
X00469350
X00494750
X00516340
X00541740
X00564600
X00590000
X00620000Y00510000
Y00484600
Y00461740
Y00436340
Y00414750
X00950000Y00413500
Y00435090
Y00460490
Y00483350
Y00508750
Y00530340
Y00555740
Y00578600
Y00604000
X00984100Y00648000
X01009500
X01031090
X01056490
X01079350
X01104750
X01126340
X01151740
X01174600
X01200000
X01230000Y00604000
Y00578600
Y00555740
Y00530340
Y00508750
Y00483350
Y00460490
Y00435090
Y00413500
X01380000
Y00435090
Y00460490
Y00483350
Y00508750
Y00530340
Y00555740
Y00578600
Y00604000
X01414100Y00648000
X01439500
X01461090
X01486490
X01509350
X01534750
X01556340
X01581740
X01604600
X01630000
X01662000Y00604000
Y00578600
Y00555740
Y00530340
Y00508750
Y00483350
Y00460490
Y00435090
Y00413500
X01922000
Y00435090
Y00460490
Y00483350
Y00508750
Y00530340
Y00555740
Y00578600
Y00604000
X01956100Y00648000
X01981500
X02003090
X02028490
X02051350
X02076750
X02098340
X02123740
X02146600
X02172000
X02204000Y00604000
Y00578600
Y00555740
Y00530340
Y00508750
Y00483350
Y00460490
Y00435090
Y00413500
X02354000
Y00435090
Y00460490
Y00483350
Y00508750
Y00530340
Y00555740
Y00578600
Y00604000
X02388100Y00648000
X02413500
X02435090
X02460490
X02483350
X02508750
X02530340
X02555740
X02578600
X02604000
X02636000Y00604000
Y00578600
Y00555740
Y00530340
Y00508750
Y00483350
Y00460490
Y00435090
Y00413500
T03
X01777300Y00193300
X01802700
X00797700Y00165600
X00772300
Y00425000
X00797700
X01777300Y00495730
X01802700
T04
X01857000Y00378000
X00612500Y00635147
Y00660547
Y00685947
X00587100
Y00660547
Y00635147
X00880600Y00586394
X00906000
X00904000Y00550000
Y00524600
Y00499200
Y00473800
Y00448400
Y00423000
X01037910Y00735000
X01063310
X01857000Y00403400
X02527600Y00522000
X02553000
T05
X01532000Y00522500
T06
X01532000Y00447500
T07
X02645000Y00035040
X00035000Y00035045
X00036000Y00740000
X02645000
M30
