G04*
G04 #@! TF.GenerationSoftware,Altium Limited,Altium Designer,18.1.9 (240)*
G04*
G04 Layer_Color=65535*
%FSAX44Y44*%
%MOMM*%
G71*
G01*
G75*
%ADD10C,0.2500*%
%ADD11C,0.6000*%
%ADD12C,0.2540*%
%ADD13C,0.1270*%
%ADD14C,0.2000*%
%ADD15C,0.1524*%
%ADD16C,0.3048*%
%ADD17C,0.1500*%
%ADD18C,0.2032*%
%ADD19C,0.1100*%
D10*
X02527000Y00488000D02*
G03*
X02527000Y00488000I-00001250J00000000D01*
G01*
X02451250Y00543250D02*
G03*
X02451250Y00543250I-00001250J00000000D01*
G01*
X01993510Y00552750D02*
G03*
X01993510Y00552750I-00001250J00000000D01*
G01*
X02090000Y00423000D02*
G03*
X02090000Y00423000I-00001250J00000000D01*
G01*
X01059750Y00568200D02*
G03*
X01059750Y00568200I-00001250J00000000D01*
G01*
X00324090Y00727250D02*
G03*
X00324090Y00727250I-00001250J00000000D01*
G01*
X00725250Y00669250D02*
G03*
X00725250Y00669250I-00001250J00000000D01*
G01*
X02475000Y00213200D02*
G03*
X02475000Y00213200I-00001250J00000000D01*
G01*
X02039250D02*
G03*
X02039250Y00213200I-00001250J00000000D01*
G01*
X01495620D02*
G03*
X01495620Y00213200I-00001250J00000000D01*
G01*
X01061000D02*
G03*
X01061000Y00213200I-00001250J00000000D01*
G01*
X00140000Y00204200D02*
G03*
X00140000Y00204200I-00001250J00000000D01*
G01*
X00477000Y00205200D02*
G03*
X00477000Y00205200I-00001250J00000000D01*
G01*
D11*
X01086000Y00557500D02*
G03*
X01086000Y00557500I-00003000J00000000D01*
G01*
X00750000Y00654500D02*
G03*
X00750000Y00654500I-00003000J00000000D01*
G01*
X02499000Y00200000D02*
G03*
X02499000Y00200000I-00003000J00000000D01*
G01*
X02063250D02*
G03*
X02063250Y00200000I-00003000J00000000D01*
G01*
X01519620D02*
G03*
X01519620Y00200000I-00003000J00000000D01*
G01*
X01085000D02*
G03*
X01085000Y00200000I-00003000J00000000D01*
G01*
X00164000Y00191000D02*
G03*
X00164000Y00191000I-00003000J00000000D01*
G01*
X00501000Y00192000D02*
G03*
X00501000Y00192000I-00003000J00000000D01*
G01*
D12*
X01588798Y00430726D02*
G03*
X01475092Y00431881I-00056313J00053745D01*
G01*
X02057010Y00562530D02*
X02063360D01*
X02049390Y00554910D02*
X02057010Y00562530D01*
X02049390Y00547290D02*
Y00554910D01*
Y00444420D02*
Y00547290D01*
Y00444420D02*
X02057010Y00436800D01*
X02162420D01*
X02064630Y00562530D02*
X02162420D01*
Y00437568D02*
Y00562800D01*
X01500250Y00384670D02*
Y00394830D01*
X01495170Y00389750D02*
X01505330D01*
X01497710Y00571360D02*
X01511680D01*
X01544700Y00404990D02*
X01605660D01*
X01589134Y00430390D02*
X01606930D01*
X01460880D02*
X01476120D01*
X01606930Y00404990D02*
Y00430390D01*
X01460880Y00404990D02*
Y00430390D01*
Y00404990D02*
X01519300D01*
X00957070Y00668250D02*
Y00733020D01*
X00852930D02*
X00957070D01*
X00852930Y00668250D02*
Y00733020D01*
Y00668250D02*
X00957070D01*
X00668980Y00481070D02*
X00733750D01*
X00668980Y00376930D02*
Y00481070D01*
Y00376930D02*
X00733750D01*
Y00481070D01*
X01339000Y00747992D02*
X01343998Y00752990D01*
X01353995D01*
X01358994Y00747992D01*
Y00727998D01*
X01353995Y00723000D01*
X01343998D01*
X01339000Y00727998D01*
Y00747992D01*
X01388984Y00723000D02*
X01368990D01*
X01388984Y00742993D01*
Y00747992D01*
X01383985Y00752990D01*
X01373989D01*
X01368990Y00747992D01*
X01398981Y00723000D02*
Y00727998D01*
X01403979D01*
Y00723000D01*
X01398981D01*
X01513943Y00752990D02*
Y00723000D01*
Y00732997D01*
X01533937Y00752990D01*
X01518942Y00737995D01*
X01533937Y00723000D01*
X01548932Y00742993D02*
X01558929D01*
X01563927Y00737995D01*
Y00723000D01*
X01548932D01*
X01543934Y00727998D01*
X01548932Y00732997D01*
X01563927D01*
X01573924Y00742993D02*
Y00723000D01*
Y00732997D01*
X01578922Y00737995D01*
X01583921Y00742993D01*
X01588919D01*
X01603914Y00723000D02*
X01613911D01*
X01608913D01*
Y00752990D01*
X01603914D01*
X01708880Y00723000D02*
X01688887D01*
X01708880Y00742993D01*
Y00747992D01*
X01703882Y00752990D01*
X01693885D01*
X01688887Y00747992D01*
X01718877D02*
X01723875Y00752990D01*
X01733872D01*
X01738871Y00747992D01*
Y00727998D01*
X01733872Y00723000D01*
X01723875D01*
X01718877Y00727998D01*
Y00747992D01*
X01748867Y00723000D02*
Y00727998D01*
X01753866D01*
Y00723000D01*
X01748867D01*
X01773859D02*
X01783856D01*
X01778858D01*
Y00752990D01*
X01773859Y00747992D01*
X01798851Y00723000D02*
X01808848D01*
X01803849D01*
Y00752990D01*
X01798851Y00747992D01*
X01823843Y00723000D02*
Y00727998D01*
X01828842D01*
Y00723000D01*
X01823843D01*
X01868828D02*
X01848835D01*
X01868828Y00742993D01*
Y00747992D01*
X01863830Y00752990D01*
X01853833D01*
X01848835Y00747992D01*
X01878825D02*
X01883824Y00752990D01*
X01893820D01*
X01898819Y00747992D01*
Y00727998D01*
X01893820Y00723000D01*
X01883824D01*
X01878825Y00727998D01*
Y00747992D01*
X01908816Y00723000D02*
X01918812D01*
X01913814D01*
Y00752990D01*
X01908816Y00747992D01*
X01933808D02*
X01938806Y00752990D01*
X01948803D01*
X01953801Y00747992D01*
Y00742993D01*
X01948803Y00737995D01*
X01953801Y00732997D01*
Y00727998D01*
X01948803Y00723000D01*
X01938806D01*
X01933808Y00727998D01*
Y00732997D01*
X01938806Y00737995D01*
X01933808Y00742993D01*
Y00747992D01*
X01938806Y00737995D02*
X01948803D01*
D13*
X01804500Y00550730D02*
G03*
X01775500Y00550730I-00014500J00000000D01*
G01*
X01804500Y00248300D02*
G03*
X01775500Y00248300I-00014500J00000000D01*
G01*
X00770500Y00370000D02*
G03*
X00799500Y00370000I00014500J00000000D01*
G01*
Y00220600D02*
G03*
X00770500Y00220600I-00014500J00000000D01*
G01*
X01768000Y00475730D02*
X01812000D01*
X01768000D02*
Y00539730D01*
X01812000D01*
Y00475730D02*
Y00539730D01*
X01775500D02*
Y00550730D01*
X01804500Y00539730D02*
Y00550730D01*
X01768000Y00173300D02*
X01812000D01*
X01768000D02*
Y00237300D01*
X01812000D01*
Y00173300D02*
Y00237300D01*
X01775500D02*
Y00248300D01*
X01804500Y00237300D02*
Y00248300D01*
X00763000Y00445000D02*
X00807000D01*
Y00381000D02*
Y00445000D01*
X00763000Y00381000D02*
X00807000D01*
X00763000D02*
Y00445000D01*
X00799500Y00370000D02*
Y00381000D01*
X00770500Y00370000D02*
Y00381000D01*
X00763000Y00145600D02*
X00807000D01*
X00763000D02*
Y00209600D01*
X00807000D01*
Y00145600D02*
Y00209600D01*
X00770500D02*
Y00220600D01*
X00799500Y00209600D02*
Y00220600D01*
D14*
X00867900Y00573694D02*
Y00599094D01*
X00918700D01*
Y00573694D02*
Y00599094D01*
X00867900Y00573694D02*
X00918700D01*
X00916700Y00410300D02*
Y00562700D01*
X00891300Y00410300D02*
Y00562700D01*
Y00410300D02*
X00916700D01*
X00891300Y00562700D02*
X00916700D01*
X02544000Y00455000D02*
Y00463000D01*
X02535000Y00455000D02*
X02544000D01*
Y00477000D02*
Y00485000D01*
X02535000D02*
X02544000D01*
X02467000Y00509500D02*
Y00517750D01*
X02457000Y00509500D02*
X02467000D01*
Y00532250D02*
Y00540500D01*
X02457000D02*
X02467000D01*
X02009260Y00519000D02*
Y00527250D01*
X01999260Y00519000D02*
X02009260D01*
Y00541750D02*
Y00550000D01*
X01999260D02*
X02009260D01*
X02107000Y00390000D02*
Y00398000D01*
X02098000Y00390000D02*
X02107000D01*
Y00412000D02*
Y00420000D01*
X02098000D02*
X02107000D01*
X02094210Y00696030D02*
Y00722700D01*
X02080875Y00696030D02*
X02094210D01*
X02035790D02*
Y00707215D01*
Y00696030D02*
X02080875D01*
X02035790Y00707215D02*
Y00722700D01*
X02094210D01*
X02105790Y00572300D02*
Y00598970D01*
X02119125D01*
X02164210Y00587785D02*
Y00598970D01*
X02119125D02*
X02164210D01*
Y00572300D02*
Y00587785D01*
X02105790Y00572300D02*
X02164210D01*
X01224185Y00712300D02*
Y00738970D01*
X01237520D01*
X01282605Y00727785D02*
Y00738970D01*
X01237520D02*
X01282605D01*
Y00712300D02*
Y00727785D01*
X01224185Y00712300D02*
X01282605D01*
X01180120Y00711030D02*
Y00737700D01*
X01166785Y00711030D02*
X01180120D01*
X01121700D02*
Y00722215D01*
Y00711030D02*
X01166785D01*
X01121700Y00722215D02*
Y00737700D01*
X01180120D01*
X01076010Y00722300D02*
Y00747700D01*
X01025210Y00722300D02*
X01076010D01*
X01025210D02*
Y00747700D01*
X01076010D01*
X01073000Y00462500D02*
X01141000D01*
X01073000Y00567500D02*
X01141000D01*
Y00462500D02*
Y00567500D01*
X01073000Y00462500D02*
Y00567500D01*
X00625200Y00649964D02*
Y00698647D01*
Y00622447D02*
Y00698647D01*
X00574400Y00622447D02*
Y00698647D01*
Y00622447D02*
X00625200D01*
X00574400Y00698647D02*
X00625200D01*
X00332590Y00724500D02*
X00342590D01*
X00332590Y00693500D02*
X00342590D01*
X00332590D02*
Y00724500D01*
X00342590Y00693500D02*
Y00724500D01*
X00737000Y00577500D02*
Y00664500D01*
X00824000Y00577500D02*
Y00664500D01*
X00737000D02*
X00824000D01*
X00737000Y00577500D02*
X00824000D01*
X01844300Y00416100D02*
X01869700D01*
Y00365300D02*
Y00416100D01*
X01844300Y00365300D02*
X01869700D01*
X01844300D02*
Y00416100D01*
X02486000Y00110000D02*
X02518000D01*
X02486000Y00210000D02*
X02518000D01*
Y00110000D02*
Y00210000D01*
X02486000Y00110000D02*
Y00210000D01*
X02050250Y00110000D02*
X02082250D01*
X02050250Y00210000D02*
X02082250D01*
Y00110000D02*
Y00210000D01*
X02050250Y00110000D02*
Y00210000D01*
X01506620Y00110000D02*
X01538620D01*
X01506620Y00210000D02*
X01538620D01*
Y00110000D02*
Y00210000D01*
X01506620Y00110000D02*
Y00210000D01*
X01072000Y00110000D02*
X01104000D01*
X01072000Y00210000D02*
X01104000D01*
Y00110000D02*
Y00210000D01*
X01072000Y00110000D02*
Y00210000D01*
X00151000Y00101000D02*
X00183000D01*
X00151000Y00201000D02*
X00183000D01*
Y00101000D02*
Y00201000D01*
X00151000Y00101000D02*
Y00201000D01*
X00488000Y00102000D02*
X00520000D01*
X00488000Y00202000D02*
X00520000D01*
Y00102000D02*
Y00202000D01*
X00488000Y00102000D02*
Y00202000D01*
X02565700Y00509300D02*
Y00534700D01*
X02514900Y00509300D02*
X02565700D01*
X02514900D02*
Y00534700D01*
X02565700D01*
X00830000Y00474000D02*
X00844000D01*
X00830000Y00502000D02*
X00844000D01*
D15*
X00858000Y00536000D02*
X00882000D01*
X00858000Y00550000D02*
X00882000D01*
X00836000Y00536000D02*
Y00560000D01*
X00850000Y00536000D02*
Y00560000D01*
X00560001Y00626300D02*
X00568000D01*
X00559510Y00666001D02*
X00567509D01*
X00559000Y00694001D02*
X00566999D01*
X00849501Y00445435D02*
X00857500D01*
X00825501Y00445999D02*
X00833500D01*
X01132000Y00591000D02*
Y00615000D01*
X01118000Y00591000D02*
Y00615000D01*
X00814250Y00736000D02*
X00838250D01*
X00814250Y00722000D02*
X00838250D01*
X00397340Y00692000D02*
X00421340D01*
X00397340Y00706000D02*
X00421340D01*
X00737251Y00692001D02*
Y00700000D01*
X00750999Y00709000D02*
Y00716999D01*
X00522001Y00668000D02*
X00546001D01*
X00522001Y00654000D02*
X00546001D01*
X00522000Y00692000D02*
X00546000D01*
X00522000Y00678000D02*
X00546000D01*
X00522000Y00641000D02*
X00546000D01*
X00522000Y00627000D02*
X00546000D01*
X01149000Y00590750D02*
Y00614750D01*
X01163000Y00590750D02*
Y00614750D01*
X00227050Y00178000D02*
Y00202000D01*
X00213050Y00178000D02*
Y00202000D01*
X00562000Y00180740D02*
Y00204740D01*
X00548000Y00180740D02*
Y00204740D01*
X01008250Y00603000D02*
X01032250D01*
X01008250Y00617000D02*
X01032250D01*
X01853000Y00566751D02*
X01860999D01*
X01854001Y00616499D02*
X01862000D01*
X02556370Y00189750D02*
Y00213750D01*
X02570370Y00189750D02*
Y00213750D01*
X02113000Y00188000D02*
Y00212000D01*
X02127000Y00188000D02*
Y00212000D01*
X01568000Y00188000D02*
Y00212000D01*
X01582000Y00188000D02*
Y00212000D01*
X01138000Y00188000D02*
Y00212000D01*
X01152000Y00188000D02*
Y00212000D01*
X01987000Y00577000D02*
Y00601000D01*
X02001000Y00577000D02*
Y00601000D01*
X02440000Y00575000D02*
Y00599000D01*
X02454000Y00575000D02*
Y00599000D01*
X00816999Y00692000D02*
Y00699999D01*
X00852001Y00584999D02*
X00860000D01*
X00756001Y00528001D02*
Y00536000D01*
X00397340Y00728000D02*
X00421340D01*
X00397340Y00714000D02*
X00421340D01*
X00687000Y00629751D02*
X00694999D01*
X00716750Y00517000D02*
X00740750D01*
X00716750Y00503000D02*
X00740750D01*
D16*
X01773162Y00651750D02*
Y00664250D01*
D17*
X00886171Y00607000D02*
Y00614997D01*
X00890169D01*
X00891502Y00613665D01*
Y00610999D01*
X00890169Y00609666D01*
X00886171D01*
X00899500Y00614997D02*
X00896834Y00613665D01*
X00894168Y00610999D01*
Y00608333D01*
X00895501Y00607000D01*
X00898167D01*
X00899500Y00608333D01*
Y00609666D01*
X00898167Y00610999D01*
X00894168D01*
X00897000Y00397000D02*
Y00404997D01*
X00900999D01*
X00902332Y00403665D01*
Y00400999D01*
X00900999Y00399666D01*
X00897000D01*
X00908996Y00397000D02*
Y00404997D01*
X00904997Y00400999D01*
X00910329D01*
X02106352Y00614599D02*
Y00606602D01*
X02110351D01*
X02111684Y00607935D01*
Y00613266D01*
X02110351Y00614599D01*
X02106352D01*
X02114349Y00606602D02*
X02117015D01*
X02115682D01*
Y00614599D01*
X02114349Y00613266D01*
X02121014D02*
X02122347Y00614599D01*
X02125013D01*
X02126346Y00613266D01*
Y00607935D01*
X02125013Y00606602D01*
X02122347D01*
X02121014Y00607935D01*
Y00613266D01*
X02036248Y00738297D02*
Y00730300D01*
X02040247D01*
X02041580Y00731633D01*
Y00736964D01*
X02040247Y00738297D01*
X02036248D01*
X02044245Y00731633D02*
X02045578Y00730300D01*
X02048244D01*
X02049577Y00731633D01*
Y00736964D01*
X02048244Y00738297D01*
X02045578D01*
X02044245Y00736964D01*
Y00735632D01*
X02045578Y00734299D01*
X02049577D01*
X01224718Y00754553D02*
Y00746556D01*
X01228717D01*
X01230050Y00747889D01*
Y00753221D01*
X01228717Y00754553D01*
X01224718D01*
X01232715Y00753221D02*
X01234048Y00754553D01*
X01236714D01*
X01238047Y00753221D01*
Y00751888D01*
X01236714Y00750555D01*
X01238047Y00749222D01*
Y00747889D01*
X01236714Y00746556D01*
X01234048D01*
X01232715Y00747889D01*
Y00749222D01*
X01234048Y00750555D01*
X01232715Y00751888D01*
Y00753221D01*
X01234048Y00750555D02*
X01236714D01*
X01122102Y00753283D02*
Y00745286D01*
X01126101D01*
X01127434Y00746619D01*
Y00751951D01*
X01126101Y00753283D01*
X01122102D01*
X01130099D02*
X01135431D01*
Y00751951D01*
X01130099Y00746619D01*
Y00745286D01*
X01025836Y00755192D02*
Y00763189D01*
X01029835D01*
X01031168Y00761857D01*
Y00759191D01*
X01029835Y00757858D01*
X01025836D01*
X01039165Y00763189D02*
X01033833D01*
Y00759191D01*
X01036499Y00760524D01*
X01037832D01*
X01039165Y00759191D01*
Y00756525D01*
X01037832Y00755192D01*
X01035166D01*
X01033833Y00756525D01*
X01044378Y00587421D02*
Y00580757D01*
X01045711Y00579424D01*
X01048377D01*
X01049710Y00580757D01*
Y00587421D01*
X01052375Y00586088D02*
X01053708Y00587421D01*
X01056374D01*
X01057707Y00586088D01*
Y00584756D01*
X01056374Y00583423D01*
X01055041D01*
X01056374D01*
X01057707Y00582090D01*
Y00580757D01*
X01056374Y00579424D01*
X01053708D01*
X01052375Y00580757D01*
X01009072Y00624382D02*
Y00632379D01*
X01013071D01*
X01014404Y00631046D01*
Y00628381D01*
X01013071Y00627048D01*
X01009072D01*
X01011738D02*
X01014404Y00624382D01*
X01017069D02*
X01019735D01*
X01018402D01*
Y00632379D01*
X01017069Y00631046D01*
X01023734D02*
X01025067Y00632379D01*
X01027733D01*
X01029066Y00631046D01*
Y00629714D01*
X01027733Y00628381D01*
X01029066Y00627048D01*
Y00625715D01*
X01027733Y00624382D01*
X01025067D01*
X01023734Y00625715D01*
Y00627048D01*
X01025067Y00628381D01*
X01023734Y00629714D01*
Y00631046D01*
X01025067Y00628381D02*
X01027733D01*
X01725352Y00653207D02*
Y00646543D01*
X01726685Y00645210D01*
X01729351D01*
X01730684Y00646543D01*
Y00653207D01*
X01738681Y00645210D02*
X01733349D01*
X01738681Y00650542D01*
Y00651874D01*
X01737348Y00653207D01*
X01734682D01*
X01733349Y00651874D01*
X01858954Y00592439D02*
X01857621Y00593771D01*
X01854955D01*
X01853622Y00592439D01*
Y00587107D01*
X01854955Y00585774D01*
X01857621D01*
X01858954Y00587107D01*
X01861619D02*
X01862952Y00585774D01*
X01865618D01*
X01866951Y00587107D01*
Y00592439D01*
X01865618Y00593771D01*
X01862952D01*
X01861619Y00592439D01*
Y00591106D01*
X01862952Y00589773D01*
X01866951D01*
X02038534Y00578531D02*
Y00570534D01*
X02042533D01*
X02043866Y00571867D01*
Y00573200D01*
X02042533Y00574533D01*
X02038534D01*
X02042533D01*
X02043866Y00575866D01*
Y00577198D01*
X02042533Y00578531D01*
X02038534D01*
X02046531D02*
Y00571867D01*
X02047864Y00570534D01*
X02050530D01*
X02051863Y00571867D01*
Y00578531D01*
X02054529D02*
X02059861D01*
Y00577198D01*
X02054529Y00571867D01*
Y00570534D01*
X02059861D01*
X02062526D02*
X02065192D01*
X02063859D01*
Y00578531D01*
X02062526Y00577198D01*
X02443090Y00553621D02*
Y00558952D01*
X02441757Y00560285D01*
X02439091D01*
X02437758Y00558952D01*
Y00553621D01*
X02439091Y00552288D01*
X02441757D01*
X02440424Y00554954D02*
X02443090Y00552288D01*
X02441757D02*
X02443090Y00553621D01*
X02451087Y00552288D02*
X02445755D01*
X02451087Y00557620D01*
Y00558952D01*
X02449754Y00560285D01*
X02447088D01*
X02445755Y00558952D01*
X01985246Y00563217D02*
Y00568549D01*
X01983913Y00569881D01*
X01981247D01*
X01979914Y00568549D01*
Y00563217D01*
X01981247Y00561884D01*
X01983913D01*
X01982580Y00564550D02*
X01985246Y00561884D01*
X01983913D02*
X01985246Y00563217D01*
X01987911Y00561884D02*
X01990577D01*
X01989244D01*
Y00569881D01*
X01987911Y00568549D01*
X01170000Y00609550D02*
Y00617547D01*
X01173999D01*
X01175332Y00616214D01*
Y00613549D01*
X01173999Y00612216D01*
X01170000D01*
X01172666D02*
X01175332Y00609550D01*
X01177997D02*
X01180663D01*
X01179330D01*
Y00617547D01*
X01177997Y00616214D01*
X01184662Y00617547D02*
X01189994D01*
Y00616214D01*
X01184662Y00610883D01*
Y00609550D01*
X01079350Y00587730D02*
Y00595727D01*
X01083349D01*
X01084682Y00594394D01*
Y00591729D01*
X01083349Y00590396D01*
X01079350D01*
X01082016D02*
X01084682Y00587730D01*
X01087347D02*
X01090013D01*
X01088680D01*
Y00595727D01*
X01087347Y00594394D01*
X01099343Y00595727D02*
X01096678Y00594394D01*
X01094012Y00591729D01*
Y00589063D01*
X01095345Y00587730D01*
X01098011D01*
X01099343Y00589063D01*
Y00590396D01*
X01098011Y00591729D01*
X01094012D01*
X01454842Y00600629D02*
Y00592632D01*
X01458841D01*
X01460174Y00593965D01*
Y00595298D01*
X01458841Y00596631D01*
X01454842D01*
X01458841D01*
X01460174Y00597964D01*
Y00599296D01*
X01458841Y00600629D01*
X01454842D01*
X01462839Y00592632D02*
Y00597964D01*
X01465505Y00600629D01*
X01468171Y00597964D01*
Y00592632D01*
Y00596631D01*
X01462839D01*
X01470837Y00600629D02*
X01476169D01*
X01473503D01*
Y00592632D01*
X01478834D02*
X01481500D01*
X01480167D01*
Y00600629D01*
X01478834Y00599296D01*
X00333340Y00749997D02*
Y00743333D01*
X00334673Y00742000D01*
X00337339D01*
X00338672Y00743333D01*
Y00749997D01*
X00345336Y00742000D02*
Y00749997D01*
X00341337Y00745999D01*
X00346669D01*
X00475750Y00678000D02*
Y00685997D01*
X00479749D01*
X00481082Y00684665D01*
Y00681999D01*
X00479749Y00680666D01*
X00475750D01*
X00478416D02*
X00481082Y00678000D01*
X00483747D02*
X00486413D01*
X00485080D01*
Y00685997D01*
X00483747Y00684665D01*
X00495744Y00685997D02*
X00490412D01*
Y00681999D01*
X00493078Y00683332D01*
X00494411D01*
X00495744Y00681999D01*
Y00679333D01*
X00494411Y00678000D01*
X00491745D01*
X00490412Y00679333D01*
X00475750Y00653000D02*
Y00660997D01*
X00479749D01*
X00481082Y00659665D01*
Y00656999D01*
X00479749Y00655666D01*
X00475750D01*
X00478416D02*
X00481082Y00653000D01*
X00483747D02*
X00486413D01*
X00485080D01*
Y00660997D01*
X00483747Y00659665D01*
X00494411Y00653000D02*
Y00660997D01*
X00490412Y00656999D01*
X00495744D01*
X00477000Y00627000D02*
Y00634997D01*
X00480999D01*
X00482332Y00633665D01*
Y00630999D01*
X00480999Y00629666D01*
X00477000D01*
X00479666D02*
X00482332Y00627000D01*
X00484997D02*
X00487663D01*
X00486330D01*
Y00634997D01*
X00484997Y00633665D01*
X00491662D02*
X00492995Y00634997D01*
X00495661D01*
X00496994Y00633665D01*
Y00632332D01*
X00495661Y00630999D01*
X00494328D01*
X00495661D01*
X00496994Y00629666D01*
Y00628333D01*
X00495661Y00627000D01*
X00492995D01*
X00491662Y00628333D01*
X00561000Y00709000D02*
Y00716997D01*
X00564999D01*
X00566332Y00715665D01*
Y00712999D01*
X00564999Y00711666D01*
X00561000D01*
X00568997Y00715665D02*
X00570330Y00716997D01*
X00572996D01*
X00574329Y00715665D01*
Y00714332D01*
X00572996Y00712999D01*
X00571663D01*
X00572996D01*
X00574329Y00711666D01*
Y00710333D01*
X00572996Y00709000D01*
X00570330D01*
X00568997Y00710333D01*
X01844732Y00423722D02*
Y00431719D01*
X01848731D01*
X01850064Y00430387D01*
Y00427721D01*
X01848731Y00426388D01*
X01844732D01*
X01858061Y00423722D02*
X01852729D01*
X01858061Y00429054D01*
Y00430387D01*
X01856728Y00431719D01*
X01854062D01*
X01852729Y00430387D01*
X00073336Y00335961D02*
Y00327964D01*
X00078668D01*
X00086665Y00334628D02*
X00085332Y00335961D01*
X00082666D01*
X00081333Y00334628D01*
Y00329297D01*
X00082666Y00327964D01*
X00085332D01*
X00086665Y00329297D01*
Y00331963D01*
X00083999D01*
X00093330Y00327964D02*
Y00335961D01*
X00089331Y00331963D01*
X00094663D01*
X00102660Y00327964D02*
X00097328D01*
X00102660Y00333296D01*
Y00334628D01*
X00101327Y00335961D01*
X00098661D01*
X00097328Y00334628D01*
X00260026Y00532811D02*
Y00524814D01*
X00265358D01*
X00273355Y00531479D02*
X00272022Y00532811D01*
X00269356D01*
X00268023Y00531479D01*
Y00526147D01*
X00269356Y00524814D01*
X00272022D01*
X00273355Y00526147D01*
Y00528813D01*
X00270689D01*
X00280020Y00524814D02*
Y00532811D01*
X00276021Y00528813D01*
X00281353D01*
X00284018Y00524814D02*
X00286684D01*
X00285351D01*
Y00532811D01*
X00284018Y00531479D01*
X00260026Y00272715D02*
Y00264718D01*
X00265358D01*
X00273355Y00271383D02*
X00272022Y00272715D01*
X00269356D01*
X00268023Y00271383D01*
Y00266051D01*
X00269356Y00264718D01*
X00272022D01*
X00273355Y00266051D01*
Y00268717D01*
X00270689D01*
X00280020Y00264718D02*
Y00272715D01*
X00276021Y00268717D01*
X00281353D01*
X00284018Y00271383D02*
X00285351Y00272715D01*
X00288017D01*
X00289350Y00271383D01*
Y00266051D01*
X00288017Y00264718D01*
X00285351D01*
X00284018Y00266051D01*
Y00271383D01*
X00074352Y00075865D02*
Y00067868D01*
X00079684D01*
X00087681Y00074532D02*
X00086348Y00075865D01*
X00083682D01*
X00082349Y00074532D01*
Y00069201D01*
X00083682Y00067868D01*
X00086348D01*
X00087681Y00069201D01*
Y00071867D01*
X00085015D01*
X00090347Y00074532D02*
X00091680Y00075865D01*
X00094346D01*
X00095679Y00074532D01*
Y00073200D01*
X00094346Y00071867D01*
X00093013D01*
X00094346D01*
X00095679Y00070534D01*
Y00069201D01*
X00094346Y00067868D01*
X00091680D01*
X00090347Y00069201D01*
X00098344D02*
X00099677Y00067868D01*
X00102343D01*
X00103676Y00069201D01*
Y00074532D01*
X00102343Y00075865D01*
X00099677D01*
X00098344Y00074532D01*
Y00073200D01*
X00099677Y00071867D01*
X00103676D01*
X00030156Y00272715D02*
Y00264718D01*
X00035488D01*
X00043485Y00271383D02*
X00042152Y00272715D01*
X00039486D01*
X00038153Y00271383D01*
Y00266051D01*
X00039486Y00264718D01*
X00042152D01*
X00043485Y00266051D01*
Y00268717D01*
X00040819D01*
X00046151Y00271383D02*
X00047484Y00272715D01*
X00050150D01*
X00051483Y00271383D01*
Y00270050D01*
X00050150Y00268717D01*
X00048817D01*
X00050150D01*
X00051483Y00267384D01*
Y00266051D01*
X00050150Y00264718D01*
X00047484D01*
X00046151Y00266051D01*
X00054148Y00271383D02*
X00055481Y00272715D01*
X00058147D01*
X00059480Y00271383D01*
Y00270050D01*
X00058147Y00268717D01*
X00059480Y00267384D01*
Y00266051D01*
X00058147Y00264718D01*
X00055481D01*
X00054148Y00266051D01*
Y00267384D01*
X00055481Y00268717D01*
X00054148Y00270050D01*
Y00271383D01*
X00055481Y00268717D02*
X00058147D01*
X00030156Y00532811D02*
Y00524814D01*
X00035488D01*
X00043485Y00531479D02*
X00042152Y00532811D01*
X00039486D01*
X00038153Y00531479D01*
Y00526147D01*
X00039486Y00524814D01*
X00042152D01*
X00043485Y00526147D01*
Y00528813D01*
X00040819D01*
X00046151Y00531479D02*
X00047484Y00532811D01*
X00050150D01*
X00051483Y00531479D01*
Y00530146D01*
X00050150Y00528813D01*
X00048817D01*
X00050150D01*
X00051483Y00527480D01*
Y00526147D01*
X00050150Y00524814D01*
X00047484D01*
X00046151Y00526147D01*
X00054148Y00532811D02*
X00059480D01*
Y00531479D01*
X00054148Y00526147D01*
Y00524814D01*
X00073336Y00596057D02*
Y00588060D01*
X00078668D01*
X00086665Y00594725D02*
X00085332Y00596057D01*
X00082666D01*
X00081333Y00594725D01*
Y00589393D01*
X00082666Y00588060D01*
X00085332D01*
X00086665Y00589393D01*
Y00592059D01*
X00083999D01*
X00089331Y00594725D02*
X00090664Y00596057D01*
X00093330D01*
X00094663Y00594725D01*
Y00593392D01*
X00093330Y00592059D01*
X00091997D01*
X00093330D01*
X00094663Y00590726D01*
Y00589393D01*
X00093330Y00588060D01*
X00090664D01*
X00089331Y00589393D01*
X00102660Y00596057D02*
X00099994Y00594725D01*
X00097328Y00592059D01*
Y00589393D01*
X00098661Y00588060D01*
X00101327D01*
X00102660Y00589393D01*
Y00590726D01*
X00101327Y00592059D01*
X00097328D01*
X00413442Y00335961D02*
Y00327964D01*
X00418774D01*
X00426771Y00334628D02*
X00425438Y00335961D01*
X00422772D01*
X00421439Y00334628D01*
Y00329297D01*
X00422772Y00327964D01*
X00425438D01*
X00426771Y00329297D01*
Y00331963D01*
X00424105D01*
X00429437Y00334628D02*
X00430770Y00335961D01*
X00433436D01*
X00434768Y00334628D01*
Y00333296D01*
X00433436Y00331963D01*
X00432103D01*
X00433436D01*
X00434768Y00330630D01*
Y00329297D01*
X00433436Y00327964D01*
X00430770D01*
X00429437Y00329297D01*
X00442766Y00335961D02*
X00437434D01*
Y00331963D01*
X00440100Y00333296D01*
X00441433D01*
X00442766Y00331963D01*
Y00329297D01*
X00441433Y00327964D01*
X00438767D01*
X00437434Y00329297D01*
X00600132Y00532811D02*
Y00524814D01*
X00605464D01*
X00613461Y00531479D02*
X00612128Y00532811D01*
X00609462D01*
X00608129Y00531479D01*
Y00526147D01*
X00609462Y00524814D01*
X00612128D01*
X00613461Y00526147D01*
Y00528813D01*
X00610795D01*
X00616127Y00531479D02*
X00617460Y00532811D01*
X00620126D01*
X00621459Y00531479D01*
Y00530146D01*
X00620126Y00528813D01*
X00618793D01*
X00620126D01*
X00621459Y00527480D01*
Y00526147D01*
X00620126Y00524814D01*
X00617460D01*
X00616127Y00526147D01*
X00628123Y00524814D02*
Y00532811D01*
X00624124Y00528813D01*
X00629456D01*
X00600132Y00272715D02*
Y00264718D01*
X00605464D01*
X00613461Y00271383D02*
X00612128Y00272715D01*
X00609462D01*
X00608129Y00271383D01*
Y00266051D01*
X00609462Y00264718D01*
X00612128D01*
X00613461Y00266051D01*
Y00268717D01*
X00610795D01*
X00616127Y00271383D02*
X00617460Y00272715D01*
X00620126D01*
X00621459Y00271383D01*
Y00270050D01*
X00620126Y00268717D01*
X00618793D01*
X00620126D01*
X00621459Y00267384D01*
Y00266051D01*
X00620126Y00264718D01*
X00617460D01*
X00616127Y00266051D01*
X00624124Y00271383D02*
X00625457Y00272715D01*
X00628123D01*
X00629456Y00271383D01*
Y00270050D01*
X00628123Y00268717D01*
X00626790D01*
X00628123D01*
X00629456Y00267384D01*
Y00266051D01*
X00628123Y00264718D01*
X00625457D01*
X00624124Y00266051D01*
X00414204Y00075865D02*
Y00067868D01*
X00419536D01*
X00427533Y00074532D02*
X00426200Y00075865D01*
X00423534D01*
X00422201Y00074532D01*
Y00069201D01*
X00423534Y00067868D01*
X00426200D01*
X00427533Y00069201D01*
Y00071867D01*
X00424867D01*
X00430199Y00074532D02*
X00431532Y00075865D01*
X00434198D01*
X00435531Y00074532D01*
Y00073200D01*
X00434198Y00071867D01*
X00432865D01*
X00434198D01*
X00435531Y00070534D01*
Y00069201D01*
X00434198Y00067868D01*
X00431532D01*
X00430199Y00069201D01*
X00443528Y00067868D02*
X00438196D01*
X00443528Y00073200D01*
Y00074532D01*
X00442195Y00075865D01*
X00439529D01*
X00438196Y00074532D01*
X00370008Y00272715D02*
Y00264718D01*
X00375340D01*
X00383337Y00271383D02*
X00382004Y00272715D01*
X00379338D01*
X00378005Y00271383D01*
Y00266051D01*
X00379338Y00264718D01*
X00382004D01*
X00383337Y00266051D01*
Y00268717D01*
X00380671D01*
X00386003Y00271383D02*
X00387336Y00272715D01*
X00390002D01*
X00391334Y00271383D01*
Y00270050D01*
X00390002Y00268717D01*
X00388669D01*
X00390002D01*
X00391334Y00267384D01*
Y00266051D01*
X00390002Y00264718D01*
X00387336D01*
X00386003Y00266051D01*
X00394000Y00264718D02*
X00396666D01*
X00395333D01*
Y00272715D01*
X00394000Y00271383D01*
X00370008Y00532811D02*
Y00524814D01*
X00375340D01*
X00383337Y00531479D02*
X00382004Y00532811D01*
X00379338D01*
X00378005Y00531479D01*
Y00526147D01*
X00379338Y00524814D01*
X00382004D01*
X00383337Y00526147D01*
Y00528813D01*
X00380671D01*
X00386003Y00531479D02*
X00387336Y00532811D01*
X00390002D01*
X00391334Y00531479D01*
Y00530146D01*
X00390002Y00528813D01*
X00388669D01*
X00390002D01*
X00391334Y00527480D01*
Y00526147D01*
X00390002Y00524814D01*
X00387336D01*
X00386003Y00526147D01*
X00394000Y00531479D02*
X00395333Y00532811D01*
X00397999D01*
X00399332Y00531479D01*
Y00526147D01*
X00397999Y00524814D01*
X00395333D01*
X00394000Y00526147D01*
Y00531479D01*
X00414204Y00596057D02*
Y00588060D01*
X00419536D01*
X00427533Y00594725D02*
X00426200Y00596057D01*
X00423534D01*
X00422201Y00594725D01*
Y00589393D01*
X00423534Y00588060D01*
X00426200D01*
X00427533Y00589393D01*
Y00592059D01*
X00424867D01*
X00435531Y00588060D02*
X00430199D01*
X00435531Y00593392D01*
Y00594725D01*
X00434198Y00596057D01*
X00431532D01*
X00430199Y00594725D01*
X00438196Y00589393D02*
X00439529Y00588060D01*
X00442195D01*
X00443528Y00589393D01*
Y00594725D01*
X00442195Y00596057D01*
X00439529D01*
X00438196Y00594725D01*
Y00593392D01*
X00439529Y00592059D01*
X00443528D01*
X02379402Y00378887D02*
Y00370890D01*
X02384734D01*
X02392731Y00377555D02*
X02391398Y00378887D01*
X02388732D01*
X02387399Y00377555D01*
Y00372223D01*
X02388732Y00370890D01*
X02391398D01*
X02392731Y00372223D01*
Y00374889D01*
X02390065D01*
X02400728Y00370890D02*
X02395397D01*
X02400728Y00376222D01*
Y00377555D01*
X02399396Y00378887D01*
X02396730D01*
X02395397Y00377555D01*
X02403394D02*
X02404727Y00378887D01*
X02407393D01*
X02408726Y00377555D01*
Y00376222D01*
X02407393Y00374889D01*
X02408726Y00373556D01*
Y00372223D01*
X02407393Y00370890D01*
X02404727D01*
X02403394Y00372223D01*
Y00373556D01*
X02404727Y00374889D01*
X02403394Y00376222D01*
Y00377555D01*
X02404727Y00374889D02*
X02407393D01*
X02616130Y00626791D02*
Y00618794D01*
X02621461D01*
X02629459Y00625458D02*
X02628126Y00626791D01*
X02625461D01*
X02624128Y00625458D01*
Y00620127D01*
X02625461Y00618794D01*
X02628126D01*
X02629459Y00620127D01*
Y00622793D01*
X02626793D01*
X02637456Y00618794D02*
X02632125D01*
X02637456Y00624126D01*
Y00625458D01*
X02636124Y00626791D01*
X02633458D01*
X02632125Y00625458D01*
X02640122Y00626791D02*
X02645454D01*
Y00625458D01*
X02640122Y00620127D01*
Y00618794D01*
X02616130Y00322753D02*
Y00314756D01*
X02621461D01*
X02629459Y00321421D02*
X02628126Y00322753D01*
X02625461D01*
X02624128Y00321421D01*
Y00316089D01*
X02625461Y00314756D01*
X02628126D01*
X02629459Y00316089D01*
Y00318755D01*
X02626793D01*
X02637456Y00314756D02*
X02632125D01*
X02637456Y00320088D01*
Y00321421D01*
X02636124Y00322753D01*
X02633458D01*
X02632125Y00321421D01*
X02645454Y00322753D02*
X02642788Y00321421D01*
X02640122Y00318755D01*
Y00316089D01*
X02641455Y00314756D01*
X02644121D01*
X02645454Y00316089D01*
Y00317422D01*
X02644121Y00318755D01*
X02640122D01*
X02380926Y00075865D02*
Y00067868D01*
X02386258D01*
X02394255Y00074532D02*
X02392922Y00075865D01*
X02390256D01*
X02388923Y00074532D01*
Y00069201D01*
X02390256Y00067868D01*
X02392922D01*
X02394255Y00069201D01*
Y00071867D01*
X02391589D01*
X02402253Y00067868D02*
X02396921D01*
X02402253Y00073200D01*
Y00074532D01*
X02400920Y00075865D01*
X02398254D01*
X02396921Y00074532D01*
X02410250Y00075865D02*
X02404918D01*
Y00071867D01*
X02407584Y00073200D01*
X02408917D01*
X02410250Y00071867D01*
Y00069201D01*
X02408917Y00067868D01*
X02406251D01*
X02404918Y00069201D01*
X02334190Y00322753D02*
Y00314756D01*
X02339522D01*
X02347519Y00321421D02*
X02346186Y00322753D01*
X02343520D01*
X02342187Y00321421D01*
Y00316089D01*
X02343520Y00314756D01*
X02346186D01*
X02347519Y00316089D01*
Y00318755D01*
X02344853D01*
X02355517Y00314756D02*
X02350185D01*
X02355517Y00320088D01*
Y00321421D01*
X02354184Y00322753D01*
X02351518D01*
X02350185Y00321421D01*
X02362181Y00314756D02*
Y00322753D01*
X02358182Y00318755D01*
X02363514D01*
X02334190Y00626791D02*
Y00618794D01*
X02339522D01*
X02347519Y00625458D02*
X02346186Y00626791D01*
X02343520D01*
X02342187Y00625458D01*
Y00620127D01*
X02343520Y00618794D01*
X02346186D01*
X02347519Y00620127D01*
Y00622793D01*
X02344853D01*
X02355517Y00618794D02*
X02350185D01*
X02355517Y00624126D01*
Y00625458D01*
X02354184Y00626791D01*
X02351518D01*
X02350185Y00625458D01*
X02358182D02*
X02359515Y00626791D01*
X02362181D01*
X02363514Y00625458D01*
Y00624126D01*
X02362181Y00622793D01*
X02360848D01*
X02362181D01*
X02363514Y00621460D01*
Y00620127D01*
X02362181Y00618794D01*
X02359515D01*
X02358182Y00620127D01*
X02380926Y00683941D02*
Y00675944D01*
X02386258D01*
X02394255Y00682608D02*
X02392922Y00683941D01*
X02390256D01*
X02388923Y00682608D01*
Y00677277D01*
X02390256Y00675944D01*
X02392922D01*
X02394255Y00677277D01*
Y00679943D01*
X02391589D01*
X02402253Y00675944D02*
X02396921D01*
X02402253Y00681276D01*
Y00682608D01*
X02400920Y00683941D01*
X02398254D01*
X02396921Y00682608D01*
X02410250Y00675944D02*
X02404918D01*
X02410250Y00681276D01*
Y00682608D01*
X02408917Y00683941D01*
X02406251D01*
X02404918Y00682608D01*
X01947348Y00378887D02*
Y00370890D01*
X01952680D01*
X01960677Y00377555D02*
X01959344Y00378887D01*
X01956678D01*
X01955345Y00377555D01*
Y00372223D01*
X01956678Y00370890D01*
X01959344D01*
X01960677Y00372223D01*
Y00374889D01*
X01958011D01*
X01968674Y00370890D02*
X01963343D01*
X01968674Y00376222D01*
Y00377555D01*
X01967342Y00378887D01*
X01964676D01*
X01963343Y00377555D01*
X01971340Y00370890D02*
X01974006D01*
X01972673D01*
Y00378887D01*
X01971340Y00377555D01*
X02184076Y00626791D02*
Y00618794D01*
X02189408D01*
X02197405Y00625458D02*
X02196072Y00626791D01*
X02193406D01*
X02192073Y00625458D01*
Y00620127D01*
X02193406Y00618794D01*
X02196072D01*
X02197405Y00620127D01*
Y00622793D01*
X02194739D01*
X02205403Y00618794D02*
X02200071D01*
X02205403Y00624126D01*
Y00625458D01*
X02204070Y00626791D01*
X02201404D01*
X02200071Y00625458D01*
X02208068D02*
X02209401Y00626791D01*
X02212067D01*
X02213400Y00625458D01*
Y00620127D01*
X02212067Y00618794D01*
X02209401D01*
X02208068Y00620127D01*
Y00625458D01*
X02184076Y00322753D02*
Y00314756D01*
X02189408D01*
X02197405Y00321421D02*
X02196072Y00322753D01*
X02193406D01*
X02192073Y00321421D01*
Y00316089D01*
X02193406Y00314756D01*
X02196072D01*
X02197405Y00316089D01*
Y00318755D01*
X02194739D01*
X02200071Y00314756D02*
X02202737D01*
X02201404D01*
Y00322753D01*
X02200071Y00321421D01*
X02206735Y00316089D02*
X02208068Y00314756D01*
X02210734D01*
X02212067Y00316089D01*
Y00321421D01*
X02210734Y00322753D01*
X02208068D01*
X02206735Y00321421D01*
Y00320088D01*
X02208068Y00318755D01*
X02212067D01*
X01948872Y00075865D02*
Y00067868D01*
X01954204D01*
X01962201Y00074532D02*
X01960868Y00075865D01*
X01958202D01*
X01956869Y00074532D01*
Y00069201D01*
X01958202Y00067868D01*
X01960868D01*
X01962201Y00069201D01*
Y00071867D01*
X01959535D01*
X01964867Y00067868D02*
X01967533D01*
X01966200D01*
Y00075865D01*
X01964867Y00074532D01*
X01971531D02*
X01972864Y00075865D01*
X01975530D01*
X01976863Y00074532D01*
Y00073200D01*
X01975530Y00071867D01*
X01976863Y00070534D01*
Y00069201D01*
X01975530Y00067868D01*
X01972864D01*
X01971531Y00069201D01*
Y00070534D01*
X01972864Y00071867D01*
X01971531Y00073200D01*
Y00074532D01*
X01972864Y00071867D02*
X01975530D01*
X01902136Y00322753D02*
Y00314756D01*
X01907468D01*
X01915465Y00321421D02*
X01914132Y00322753D01*
X01911466D01*
X01910133Y00321421D01*
Y00316089D01*
X01911466Y00314756D01*
X01914132D01*
X01915465Y00316089D01*
Y00318755D01*
X01912799D01*
X01918131Y00314756D02*
X01920797D01*
X01919464D01*
Y00322753D01*
X01918131Y00321421D01*
X01924795Y00322753D02*
X01930127D01*
Y00321421D01*
X01924795Y00316089D01*
Y00314756D01*
X01902136Y00626791D02*
Y00618794D01*
X01907468D01*
X01915465Y00625458D02*
X01914132Y00626791D01*
X01911466D01*
X01910133Y00625458D01*
Y00620127D01*
X01911466Y00618794D01*
X01914132D01*
X01915465Y00620127D01*
Y00622793D01*
X01912799D01*
X01918131Y00618794D02*
X01920797D01*
X01919464D01*
Y00626791D01*
X01918131Y00625458D01*
X01930127Y00626791D02*
X01927461Y00625458D01*
X01924795Y00622793D01*
Y00620127D01*
X01926128Y00618794D01*
X01928794D01*
X01930127Y00620127D01*
Y00621460D01*
X01928794Y00622793D01*
X01924795D01*
X02027660Y00616747D02*
Y00608750D01*
X02032992D01*
X02040989Y00615415D02*
X02039656Y00616747D01*
X02036990D01*
X02035657Y00615415D01*
Y00610083D01*
X02036990Y00608750D01*
X02039656D01*
X02040989Y00610083D01*
Y00612749D01*
X02038323D01*
X02043655Y00608750D02*
X02046321D01*
X02044988D01*
Y00616747D01*
X02043655Y00615415D01*
X02055651Y00616747D02*
X02050319D01*
Y00612749D01*
X02052985Y00614082D01*
X02054318D01*
X02055651Y00612749D01*
Y00610083D01*
X02054318Y00608750D01*
X02051652D01*
X02050319Y00610083D01*
X01405312Y00378887D02*
Y00370890D01*
X01410644D01*
X01418641Y00377555D02*
X01417308Y00378887D01*
X01414642D01*
X01413309Y00377555D01*
Y00372223D01*
X01414642Y00370890D01*
X01417308D01*
X01418641Y00372223D01*
Y00374889D01*
X01415975D01*
X01421307Y00370890D02*
X01423973D01*
X01422640D01*
Y00378887D01*
X01421307Y00377555D01*
X01431970Y00370890D02*
Y00378887D01*
X01427971Y00374889D01*
X01433303D01*
X01642040Y00626791D02*
Y00618794D01*
X01647372D01*
X01655369Y00625458D02*
X01654036Y00626791D01*
X01651370D01*
X01650037Y00625458D01*
Y00620127D01*
X01651370Y00618794D01*
X01654036D01*
X01655369Y00620127D01*
Y00622793D01*
X01652703D01*
X01658035Y00618794D02*
X01660701D01*
X01659368D01*
Y00626791D01*
X01658035Y00625458D01*
X01664699D02*
X01666032Y00626791D01*
X01668698D01*
X01670031Y00625458D01*
Y00624126D01*
X01668698Y00622793D01*
X01667365D01*
X01668698D01*
X01670031Y00621460D01*
Y00620127D01*
X01668698Y00618794D01*
X01666032D01*
X01664699Y00620127D01*
X01642040Y00322753D02*
Y00314756D01*
X01647372D01*
X01655369Y00321421D02*
X01654036Y00322753D01*
X01651370D01*
X01650037Y00321421D01*
Y00316089D01*
X01651370Y00314756D01*
X01654036D01*
X01655369Y00316089D01*
Y00318755D01*
X01652703D01*
X01658035Y00314756D02*
X01660701D01*
X01659368D01*
Y00322753D01*
X01658035Y00321421D01*
X01670031Y00314756D02*
X01664699D01*
X01670031Y00320088D01*
Y00321421D01*
X01668698Y00322753D01*
X01666032D01*
X01664699Y00321421D01*
X01406836Y00075865D02*
Y00067868D01*
X01412168D01*
X01420165Y00074532D02*
X01418832Y00075865D01*
X01416166D01*
X01414833Y00074532D01*
Y00069201D01*
X01416166Y00067868D01*
X01418832D01*
X01420165Y00069201D01*
Y00071867D01*
X01417499D01*
X01422831Y00067868D02*
X01425497D01*
X01424164D01*
Y00075865D01*
X01422831Y00074532D01*
X01429495Y00067868D02*
X01432161D01*
X01430828D01*
Y00075865D01*
X01429495Y00074532D01*
X01360100Y00322753D02*
Y00314756D01*
X01365432D01*
X01373429Y00321421D02*
X01372096Y00322753D01*
X01369430D01*
X01368097Y00321421D01*
Y00316089D01*
X01369430Y00314756D01*
X01372096D01*
X01373429Y00316089D01*
Y00318755D01*
X01370763D01*
X01376095Y00314756D02*
X01378761D01*
X01377428D01*
Y00322753D01*
X01376095Y00321421D01*
X01382759D02*
X01384092Y00322753D01*
X01386758D01*
X01388091Y00321421D01*
Y00316089D01*
X01386758Y00314756D01*
X01384092D01*
X01382759Y00316089D01*
Y00321421D01*
X01360100Y00626791D02*
Y00618794D01*
X01365432D01*
X01373429Y00625458D02*
X01372096Y00626791D01*
X01369430D01*
X01368097Y00625458D01*
Y00620127D01*
X01369430Y00618794D01*
X01372096D01*
X01373429Y00620127D01*
Y00622793D01*
X01370763D01*
X01376095Y00620127D02*
X01377428Y00618794D01*
X01380094D01*
X01381427Y00620127D01*
Y00625458D01*
X01380094Y00626791D01*
X01377428D01*
X01376095Y00625458D01*
Y00624126D01*
X01377428Y00622793D01*
X01381427D01*
X01406836Y00683941D02*
Y00675944D01*
X01412168D01*
X01420165Y00682608D02*
X01418832Y00683941D01*
X01416166D01*
X01414833Y00682608D01*
Y00677277D01*
X01416166Y00675944D01*
X01418832D01*
X01420165Y00677277D01*
Y00679943D01*
X01417499D01*
X01422831Y00682608D02*
X01424164Y00683941D01*
X01426830D01*
X01428163Y00682608D01*
Y00681276D01*
X01426830Y00679943D01*
X01428163Y00678610D01*
Y00677277D01*
X01426830Y00675944D01*
X01424164D01*
X01422831Y00677277D01*
Y00678610D01*
X01424164Y00679943D01*
X01422831Y00681276D01*
Y00682608D01*
X01424164Y00679943D02*
X01426830D01*
X00975290Y00378887D02*
Y00370890D01*
X00980622D01*
X00988619Y00377555D02*
X00987286Y00378887D01*
X00984620D01*
X00983287Y00377555D01*
Y00372223D01*
X00984620Y00370890D01*
X00987286D01*
X00988619Y00372223D01*
Y00374889D01*
X00985953D01*
X00991285Y00378887D02*
X00996617D01*
Y00377555D01*
X00991285Y00372223D01*
Y00370890D01*
X01256000Y00605997D02*
Y00598000D01*
X01261332D01*
X01269329Y00604664D02*
X01267996Y00605997D01*
X01265330D01*
X01263997Y00604664D01*
Y00599333D01*
X01265330Y00598000D01*
X01267996D01*
X01269329Y00599333D01*
Y00601999D01*
X01266663D01*
X01277327Y00605997D02*
X01274661Y00604664D01*
X01271995Y00601999D01*
Y00599333D01*
X01273328Y00598000D01*
X01275994D01*
X01277327Y00599333D01*
Y00600666D01*
X01275994Y00601999D01*
X01271995D01*
X01209986Y00322753D02*
Y00314756D01*
X01215318D01*
X01223315Y00321421D02*
X01221982Y00322753D01*
X01219316D01*
X01217983Y00321421D01*
Y00316089D01*
X01219316Y00314756D01*
X01221982D01*
X01223315Y00316089D01*
Y00318755D01*
X01220649D01*
X01231312Y00322753D02*
X01225981D01*
Y00318755D01*
X01228647Y00320088D01*
X01229980D01*
X01231312Y00318755D01*
Y00316089D01*
X01229980Y00314756D01*
X01227314D01*
X01225981Y00316089D01*
X00976814Y00075865D02*
Y00067868D01*
X00982146D01*
X00990143Y00074532D02*
X00988810Y00075865D01*
X00986144D01*
X00984811Y00074532D01*
Y00069201D01*
X00986144Y00067868D01*
X00988810D01*
X00990143Y00069201D01*
Y00071867D01*
X00987477D01*
X00996808Y00067868D02*
Y00075865D01*
X00992809Y00071867D01*
X00998140D01*
X00930078Y00322753D02*
Y00314756D01*
X00935410D01*
X00943407Y00321421D02*
X00942074Y00322753D01*
X00939408D01*
X00938075Y00321421D01*
Y00316089D01*
X00939408Y00314756D01*
X00942074D01*
X00943407Y00316089D01*
Y00318755D01*
X00940741D01*
X00946073Y00321421D02*
X00947406Y00322753D01*
X00950072D01*
X00951404Y00321421D01*
Y00320088D01*
X00950072Y00318755D01*
X00948739D01*
X00950072D01*
X00951404Y00317422D01*
Y00316089D01*
X00950072Y00314756D01*
X00947406D01*
X00946073Y00316089D01*
X00930078Y00626791D02*
Y00618794D01*
X00935410D01*
X00943407Y00625458D02*
X00942074Y00626791D01*
X00939408D01*
X00938075Y00625458D01*
Y00620127D01*
X00939408Y00618794D01*
X00942074D01*
X00943407Y00620127D01*
Y00622793D01*
X00940741D01*
X00951404Y00618794D02*
X00946073D01*
X00951404Y00624126D01*
Y00625458D01*
X00950072Y00626791D01*
X00947406D01*
X00946073Y00625458D01*
X01056490Y00618997D02*
Y00611000D01*
X01061822D01*
X01069819Y00617664D02*
X01068486Y00618997D01*
X01065820D01*
X01064487Y00617664D01*
Y00612333D01*
X01065820Y00611000D01*
X01068486D01*
X01069819Y00612333D01*
Y00614999D01*
X01067153D01*
X01072485Y00611000D02*
X01075151D01*
X01073818D01*
Y00618997D01*
X01072485Y00617664D01*
X02493000Y00474997D02*
Y00467000D01*
X02496999D01*
X02498332Y00468333D01*
Y00473665D01*
X02496999Y00474997D01*
X02493000D01*
X02506329D02*
X02503663Y00473665D01*
X02500997Y00470999D01*
Y00468333D01*
X02502330Y00467000D01*
X02504996D01*
X02506329Y00468333D01*
Y00469666D01*
X02504996Y00470999D01*
X02500997D01*
X02055000Y00403497D02*
Y00395500D01*
X02058999D01*
X02060332Y00396833D01*
Y00402164D01*
X02058999Y00403497D01*
X02055000D01*
X02068329D02*
X02062997D01*
Y00399499D01*
X02065663Y00400832D01*
X02066996D01*
X02068329Y00399499D01*
Y00396833D01*
X02066996Y00395500D01*
X02064330D01*
X02062997Y00396833D01*
X01859970Y00642223D02*
X01858637Y00643555D01*
X01855971D01*
X01854638Y00642223D01*
Y00636891D01*
X01855971Y00635558D01*
X01858637D01*
X01859970Y00636891D01*
X01862635Y00635558D02*
X01865301D01*
X01863968D01*
Y00643555D01*
X01862635Y00642223D01*
X01874632Y00643555D02*
X01869300D01*
Y00639557D01*
X01871966Y00640890D01*
X01873299D01*
X01874632Y00639557D01*
Y00636891D01*
X01873299Y00635558D01*
X01870633D01*
X01869300Y00636891D01*
X00560668Y00603510D02*
X00562001Y00602177D01*
X00564667D01*
X00566000Y00603510D01*
Y00608841D01*
X00564667Y00610174D01*
X00562001D01*
X00560668Y00608841D01*
X00558003Y00610174D02*
X00555337D01*
X00556670D01*
Y00602177D01*
X00558003Y00603510D01*
X00551338D02*
X00550005Y00602177D01*
X00547339D01*
X00546007Y00603510D01*
Y00604842D01*
X00547339Y00606175D01*
X00548672D01*
X00547339D01*
X00546007Y00607508D01*
Y00608841D01*
X00547339Y00610174D01*
X00550005D01*
X00551338Y00608841D01*
X00539332Y00706665D02*
X00537999Y00707997D01*
X00535333D01*
X00534000Y00706665D01*
Y00701333D01*
X00535333Y00700000D01*
X00537999D01*
X00539332Y00701333D01*
X00541997Y00700000D02*
X00544663D01*
X00543330D01*
Y00707997D01*
X00541997Y00706665D01*
X00548662Y00700000D02*
X00551328D01*
X00549995D01*
Y00707997D01*
X00548662Y00706665D01*
X01764212Y00679306D02*
X01762879Y00680639D01*
X01760213D01*
X01758880Y00679306D01*
Y00673975D01*
X01760213Y00672642D01*
X01762879D01*
X01764212Y00673975D01*
X01766877Y00672642D02*
X01769543D01*
X01768210D01*
Y00680639D01*
X01766877Y00679306D01*
X01773542D02*
X01774875Y00680639D01*
X01777541D01*
X01778874Y00679306D01*
Y00673975D01*
X01777541Y00672642D01*
X01774875D01*
X01773542Y00673975D01*
Y00679306D01*
X01047680Y00230297D02*
Y00223633D01*
X01049013Y00222300D01*
X01051679D01*
X01053012Y00223633D01*
Y00230297D01*
X01061009D02*
X01055677D01*
Y00226299D01*
X01058343Y00227632D01*
X01059676D01*
X01061009Y00226299D01*
Y00223633D01*
X01059676Y00222300D01*
X01057010D01*
X01055677Y00223633D01*
X00126676Y00221153D02*
Y00214489D01*
X00128009Y00213156D01*
X00130675D01*
X00132008Y00214489D01*
Y00221153D01*
X00134673Y00213156D02*
X00137339D01*
X00136006D01*
Y00221153D01*
X00134673Y00219820D01*
X00141338D02*
X00142671Y00221153D01*
X00145337D01*
X00146670Y00219820D01*
Y00214489D01*
X00145337Y00213156D01*
X00142671D01*
X00141338Y00214489D01*
Y00219820D01*
X00463734Y00222169D02*
Y00215505D01*
X00465067Y00214172D01*
X00467733D01*
X00469066Y00215505D01*
Y00222169D01*
X00471731Y00215505D02*
X00473064Y00214172D01*
X00475730D01*
X00477063Y00215505D01*
Y00220837D01*
X00475730Y00222169D01*
X00473064D01*
X00471731Y00220837D01*
Y00219504D01*
X00473064Y00218171D01*
X00477063D01*
X02461698Y00230297D02*
Y00223633D01*
X02463031Y00222300D01*
X02465697D01*
X02467030Y00223633D01*
Y00230297D01*
X02469695Y00228965D02*
X02471028Y00230297D01*
X02473694D01*
X02475027Y00228965D01*
Y00227632D01*
X02473694Y00226299D01*
X02475027Y00224966D01*
Y00223633D01*
X02473694Y00222300D01*
X02471028D01*
X02469695Y00223633D01*
Y00224966D01*
X02471028Y00226299D01*
X02469695Y00227632D01*
Y00228965D01*
X02471028Y00226299D02*
X02473694D01*
X02026088Y00230297D02*
Y00223633D01*
X02027421Y00222300D01*
X02030087D01*
X02031420Y00223633D01*
Y00230297D01*
X02034085D02*
X02039417D01*
Y00228965D01*
X02034085Y00223633D01*
Y00222300D01*
X01482274Y00230297D02*
Y00223633D01*
X01483607Y00222300D01*
X01486273D01*
X01487606Y00223633D01*
Y00230297D01*
X01495603D02*
X01492937Y00228965D01*
X01490271Y00226299D01*
Y00223633D01*
X01491604Y00222300D01*
X01494270D01*
X01495603Y00223633D01*
Y00224966D01*
X01494270Y00226299D01*
X01490271D01*
X00217050Y00229250D02*
Y00237247D01*
X00221049D01*
X00222382Y00235914D01*
Y00233249D01*
X00221049Y00231916D01*
X00217050D01*
X00219716D02*
X00222382Y00229250D01*
X00225047D02*
X00227713D01*
X00226380D01*
Y00237247D01*
X00225047Y00235914D01*
X00237043Y00229250D02*
X00231712D01*
X00237043Y00234582D01*
Y00235914D01*
X00235711Y00237247D01*
X00233045D01*
X00231712Y00235914D01*
X00555000Y00225740D02*
Y00233737D01*
X00558999D01*
X00560332Y00232404D01*
Y00229739D01*
X00558999Y00228406D01*
X00555000D01*
X00557666D02*
X00560332Y00225740D01*
X00562997D02*
X00565663D01*
X00564330D01*
Y00233737D01*
X00562997Y00232404D01*
X00569662Y00225740D02*
X00572328D01*
X00570995D01*
Y00233737D01*
X00569662Y00232404D01*
X02557202Y00221030D02*
Y00229027D01*
X02561201D01*
X02562534Y00227694D01*
Y00225029D01*
X02561201Y00223696D01*
X02557202D01*
X02559868D02*
X02562534Y00221030D01*
X02565199D02*
X02567865D01*
X02566532D01*
Y00229027D01*
X02565199Y00227694D01*
X02571864D02*
X02573197Y00229027D01*
X02575863D01*
X02577196Y00227694D01*
Y00222363D01*
X02575863Y00221030D01*
X02573197D01*
X02571864Y00222363D01*
Y00227694D01*
X02113718Y00219252D02*
Y00227249D01*
X02117717D01*
X02119050Y00225917D01*
Y00223251D01*
X02117717Y00221918D01*
X02113718D01*
X02116384D02*
X02119050Y00219252D01*
X02121715Y00220585D02*
X02123048Y00219252D01*
X02125714D01*
X02127047Y00220585D01*
Y00225917D01*
X02125714Y00227249D01*
X02123048D01*
X02121715Y00225917D01*
Y00224584D01*
X02123048Y00223251D01*
X02127047D01*
X01568634Y00219252D02*
Y00227249D01*
X01572633D01*
X01573966Y00225917D01*
Y00223251D01*
X01572633Y00221918D01*
X01568634D01*
X01571300D02*
X01573966Y00219252D01*
X01576631Y00225917D02*
X01577964Y00227249D01*
X01580630D01*
X01581963Y00225917D01*
Y00224584D01*
X01580630Y00223251D01*
X01581963Y00221918D01*
Y00220585D01*
X01580630Y00219252D01*
X01577964D01*
X01576631Y00220585D01*
Y00221918D01*
X01577964Y00223251D01*
X01576631Y00224584D01*
Y00225917D01*
X01577964Y00223251D02*
X01580630D01*
X01138612Y00219252D02*
Y00227249D01*
X01142611D01*
X01143944Y00225917D01*
Y00223251D01*
X01142611Y00221918D01*
X01138612D01*
X01141278D02*
X01143944Y00219252D01*
X01146609Y00227249D02*
X01151941D01*
Y00225917D01*
X01146609Y00220585D01*
Y00219252D01*
X02440648Y00606424D02*
Y00614421D01*
X02444647D01*
X02445980Y00613088D01*
Y00610423D01*
X02444647Y00609090D01*
X02440648D01*
X02443314D02*
X02445980Y00606424D01*
X02453977Y00614421D02*
X02451311Y00613088D01*
X02448645Y00610423D01*
Y00607757D01*
X02449978Y00606424D01*
X02452644D01*
X02453977Y00607757D01*
Y00609090D01*
X02452644Y00610423D01*
X02448645D01*
X01987640Y00608408D02*
Y00616405D01*
X01991639D01*
X01992972Y00615073D01*
Y00612407D01*
X01991639Y00611074D01*
X01987640D01*
X01990306D02*
X01992972Y00608408D01*
X02000969Y00616405D02*
X01995637D01*
Y00612407D01*
X01998303Y00613740D01*
X01999636D01*
X02000969Y00612407D01*
Y00609741D01*
X01999636Y00608408D01*
X01996970D01*
X01995637Y00609741D01*
X02515292Y00542340D02*
Y00550337D01*
X02519291D01*
X02520624Y00549005D01*
Y00546339D01*
X02519291Y00545006D01*
X02515292D01*
X02523289Y00542340D02*
X02525955D01*
X02524622D01*
Y00550337D01*
X02523289Y00549005D01*
X01768786Y00580563D02*
Y00572566D01*
X01772785D01*
X01774118Y00573899D01*
Y00579230D01*
X01772785Y00580563D01*
X01768786D01*
X01780782Y00572566D02*
Y00580563D01*
X01776783Y00576565D01*
X01782115D01*
X01768786Y00278049D02*
Y00270052D01*
X01772785D01*
X01774118Y00271385D01*
Y00276716D01*
X01772785Y00278049D01*
X01768786D01*
X01776783Y00276716D02*
X01778116Y00278049D01*
X01780782D01*
X01782115Y00276716D01*
Y00275384D01*
X01780782Y00274051D01*
X01779449D01*
X01780782D01*
X01782115Y00272718D01*
Y00271385D01*
X01780782Y00270052D01*
X01778116D01*
X01776783Y00271385D01*
X00763962Y00460167D02*
Y00452170D01*
X00767961D01*
X00769294Y00453503D01*
Y00458834D01*
X00767961Y00460167D01*
X00763962D01*
X00777291Y00452170D02*
X00771959D01*
X00777291Y00457502D01*
Y00458834D01*
X00775958Y00460167D01*
X00773292D01*
X00771959Y00458834D01*
X00763962Y00250363D02*
Y00242366D01*
X00767961D01*
X00769294Y00243699D01*
Y00249030D01*
X00767961Y00250363D01*
X00763962D01*
X00771959Y00242366D02*
X00774625D01*
X00773292D01*
Y00250363D01*
X00771959Y00249030D01*
X00674552Y00495664D02*
X00673219Y00496997D01*
X00670553D01*
X00669220Y00495664D01*
Y00494332D01*
X00670553Y00492999D01*
X00673219D01*
X00674552Y00491666D01*
Y00490333D01*
X00673219Y00489000D01*
X00670553D01*
X00669220Y00490333D01*
X00677217Y00496997D02*
Y00489000D01*
X00679883Y00491666D01*
X00682549Y00489000D01*
Y00496997D01*
X00690546Y00489000D02*
X00685215D01*
X00690546Y00494332D01*
Y00495664D01*
X00689214Y00496997D01*
X00686548D01*
X00685215Y00495664D01*
X00858448Y00747633D02*
X00857115Y00748965D01*
X00854449D01*
X00853116Y00747633D01*
Y00746300D01*
X00854449Y00744967D01*
X00857115D01*
X00858448Y00743634D01*
Y00742301D01*
X00857115Y00740968D01*
X00854449D01*
X00853116Y00742301D01*
X00861113Y00748965D02*
Y00740968D01*
X00863779Y00743634D01*
X00866445Y00740968D01*
Y00748965D01*
X00869111Y00740968D02*
X00871777D01*
X00870444D01*
Y00748965D01*
X00869111Y00747633D01*
X00858194Y00610727D02*
X00856861Y00612059D01*
X00854195D01*
X00852862Y00610727D01*
Y00605395D01*
X00854195Y00604062D01*
X00856861D01*
X00858194Y00605395D01*
X00860859Y00610727D02*
X00862192Y00612059D01*
X00864858D01*
X00866191Y00610727D01*
Y00609394D01*
X00864858Y00608061D01*
X00866191Y00606728D01*
Y00605395D01*
X00864858Y00604062D01*
X00862192D01*
X00860859Y00605395D01*
Y00606728D01*
X00862192Y00608061D01*
X00860859Y00609394D01*
Y00610727D01*
X00862192Y00608061D02*
X00864858D01*
X00750386Y00549925D02*
X00749053Y00551257D01*
X00746387D01*
X00745054Y00549925D01*
Y00544593D01*
X00746387Y00543260D01*
X00749053D01*
X00750386Y00544593D01*
X00753052Y00551257D02*
X00758383D01*
Y00549925D01*
X00753052Y00544593D01*
Y00543260D01*
X00722082Y00713664D02*
X00720749Y00714997D01*
X00718083D01*
X00716750Y00713664D01*
Y00708333D01*
X00718083Y00707000D01*
X00720749D01*
X00722082Y00708333D01*
X00730079Y00714997D02*
X00727413Y00713664D01*
X00724747Y00710999D01*
Y00708333D01*
X00726080Y00707000D01*
X00728746D01*
X00730079Y00708333D01*
Y00709666D01*
X00728746Y00710999D01*
X00724747D01*
X00811458Y00714105D02*
X00810125Y00715437D01*
X00807459D01*
X00806126Y00714105D01*
Y00708773D01*
X00807459Y00707440D01*
X00810125D01*
X00811458Y00708773D01*
X00819455Y00715437D02*
X00814123D01*
Y00711439D01*
X00816789Y00712772D01*
X00818122D01*
X00819455Y00711439D01*
Y00708773D01*
X00818122Y00707440D01*
X00815456D01*
X00814123Y00708773D01*
X00803000Y00747000D02*
Y00754997D01*
X00806999D01*
X00808332Y00753664D01*
Y00750999D01*
X00806999Y00749666D01*
X00803000D01*
X00805666D02*
X00808332Y00747000D01*
X00814996D02*
Y00754997D01*
X00810997Y00750999D01*
X00816329D01*
X00802308Y00524429D02*
Y00523097D01*
X00804974Y00520431D01*
X00807640Y00523097D01*
Y00524429D01*
X00804974Y00520431D02*
Y00516432D01*
X00810305D02*
X00812971D01*
X00811638D01*
Y00524429D01*
X00810305Y00523097D01*
X00704000Y00688997D02*
Y00682333D01*
X00705333Y00681000D01*
X00707999D01*
X00709332Y00682333D01*
Y00688997D01*
X00711997Y00681000D02*
X00714663D01*
X00713330D01*
Y00688997D01*
X00711997Y00687664D01*
X00097000Y00754000D02*
X00100999D01*
X00102332Y00755333D01*
X00100999Y00756666D01*
X00098333D01*
X00097000Y00757999D01*
X00098333Y00759332D01*
X00102332D01*
X00106330Y00754000D02*
X00108996D01*
X00110329Y00755333D01*
Y00757999D01*
X00108996Y00759332D01*
X00106330D01*
X00104997Y00757999D01*
Y00755333D01*
X00106330Y00754000D01*
X00118327Y00759332D02*
X00114328D01*
X00112995Y00757999D01*
Y00755333D01*
X00114328Y00754000D01*
X00118327D01*
X00120992D02*
Y00761997D01*
Y00756666D02*
X00124991Y00759332D01*
X00120992Y00756666D02*
X00124991Y00754000D01*
X00132988D02*
X00130323D01*
X00128990Y00755333D01*
Y00757999D01*
X00130323Y00759332D01*
X00132988D01*
X00134321Y00757999D01*
Y00756666D01*
X00128990D01*
X00138320Y00760665D02*
Y00759332D01*
X00136987D01*
X00139653D01*
X00138320D01*
Y00755333D01*
X00139653Y00754000D01*
X00143652D02*
X00146317D01*
X00144985D01*
Y00761997D01*
X00143652Y00760665D01*
X00717480Y00524306D02*
Y00532303D01*
X00721479D01*
X00722812Y00530970D01*
Y00528305D01*
X00721479Y00526972D01*
X00717480D01*
X00720146D02*
X00722812Y00524306D01*
X00725477Y00530970D02*
X00726810Y00532303D01*
X00729476D01*
X00730809Y00530970D01*
Y00529638D01*
X00729476Y00528305D01*
X00728143D01*
X00729476D01*
X00730809Y00526972D01*
Y00525639D01*
X00729476Y00524306D01*
X00726810D01*
X00725477Y00525639D01*
X00403340Y00678000D02*
Y00685997D01*
X00407339D01*
X00408672Y00684665D01*
Y00681999D01*
X00407339Y00680666D01*
X00403340D01*
X00406006D02*
X00408672Y00678000D01*
X00416669D02*
X00411337D01*
X00416669Y00683332D01*
Y00684665D01*
X00415336Y00685997D01*
X00412670D01*
X00411337Y00684665D01*
X00398202Y00735380D02*
Y00743377D01*
X00402201D01*
X00403534Y00742045D01*
Y00739379D01*
X00402201Y00738046D01*
X00398202D01*
X00400868D02*
X00403534Y00735380D01*
X00406199D02*
X00408865D01*
X00407532D01*
Y00743377D01*
X00406199Y00742045D01*
X00749832Y00731665D02*
X00748499Y00732997D01*
X00745833D01*
X00744500Y00731665D01*
Y00726333D01*
X00745833Y00725000D01*
X00748499D01*
X00749832Y00726333D01*
X00756496Y00725000D02*
Y00732997D01*
X00752497Y00728999D01*
X00757829D01*
X00858268Y00426665D02*
X00856935Y00427997D01*
X00854269D01*
X00852936Y00426665D01*
Y00421333D01*
X00854269Y00420000D01*
X00856935D01*
X00858268Y00421333D01*
X00860933Y00426665D02*
X00862266Y00427997D01*
X00864932D01*
X00866265Y00426665D01*
Y00425332D01*
X00864932Y00423999D01*
X00863599D01*
X00864932D01*
X00866265Y00422666D01*
Y00421333D01*
X00864932Y00420000D01*
X00862266D01*
X00860933Y00421333D01*
X00821727Y00429664D02*
X00820394Y00430997D01*
X00817728D01*
X00816395Y00429664D01*
Y00424333D01*
X00817728Y00423000D01*
X00820394D01*
X00821727Y00424333D01*
X00829724Y00423000D02*
X00824393D01*
X00829724Y00428332D01*
Y00429664D01*
X00828391Y00430997D01*
X00825726D01*
X00824393Y00429664D01*
X00693094Y00655431D02*
X00691761Y00656763D01*
X00689095D01*
X00687762Y00655431D01*
Y00650099D01*
X00689095Y00648766D01*
X00691761D01*
X00693094Y00650099D01*
X00695759Y00648766D02*
X00698425D01*
X00697092D01*
Y00656763D01*
X00695759Y00655431D01*
D18*
X00617000Y00610837D02*
Y00615069D01*
Y00612953D01*
X00604304D01*
X00606420Y00610837D01*
X00592703Y00615464D02*
Y00607000D01*
X00584239Y00615464D01*
X00582123D01*
X00580007Y00613348D01*
Y00609116D01*
X00582123Y00607000D01*
X00605304Y00714464D02*
Y00706000D01*
X00611652D01*
X00609536Y00710232D01*
Y00712348D01*
X00611652Y00714464D01*
X00615884D01*
X00618000Y00712348D01*
Y00708116D01*
X00615884Y00706000D01*
X00581304Y00713464D02*
X00583420Y00709232D01*
X00587652Y00705000D01*
X00591884D01*
X00594000Y00707116D01*
Y00711348D01*
X00591884Y00713464D01*
X00589768D01*
X00587652Y00711348D01*
Y00705000D01*
D19*
X00555999Y00648998D02*
X00554999Y00649998D01*
X00553000D01*
X00552000Y00648998D01*
Y00645000D01*
X00553000Y00644000D01*
X00554999D01*
X00555999Y00645000D01*
X00557998Y00644000D02*
X00559997D01*
X00558998D01*
Y00649998D01*
X00557998Y00648998D01*
X00566995Y00644000D02*
X00562996D01*
X00566995Y00647999D01*
Y00648998D01*
X00565995Y00649998D01*
X00563996D01*
X00562996Y00648998D01*
M02*
