G04*
G04 #@! TF.GenerationSoftware,Altium Limited,Altium Designer,18.1.9 (240)*
G04*
G04 Layer_Color=32896*
%FSAX44Y44*%
%MOMM*%
G71*
G01*
G75*
%ADD12C,0.2540*%
%ADD15C,0.1524*%
%ADD17C,0.1500*%
D12*
X01206870Y00648000D02*
G03*
X01206870Y00648000I-00020140J00000000D01*
G01*
X01159370D02*
G03*
X01159370Y00648000I-00020140J00000000D01*
G01*
X01111870D02*
G03*
X01111870Y00648000I-00020140J00000000D01*
G01*
X01064370D02*
G03*
X01064370Y00648000I-00020140J00000000D01*
G01*
X01016940D02*
G03*
X01016940Y00648000I-00020140J00000000D01*
G01*
X02178870D02*
G03*
X02178870Y00648000I-00020140J00000000D01*
G01*
X02131370D02*
G03*
X02131370Y00648000I-00020140J00000000D01*
G01*
X02083870D02*
G03*
X02083870Y00648000I-00020140J00000000D01*
G01*
X02036370D02*
G03*
X02036370Y00648000I-00020140J00000000D01*
G01*
X01988940D02*
G03*
X01988940Y00648000I-00020140J00000000D01*
G01*
X01250140Y00590730D02*
G03*
X01250140Y00590730I-00020140J00000000D01*
G01*
Y00543230D02*
G03*
X01250140Y00543230I-00020140J00000000D01*
G01*
Y00495730D02*
G03*
X01250140Y00495730I-00020140J00000000D01*
G01*
Y00448230D02*
G03*
X01250140Y00448230I-00020140J00000000D01*
G01*
Y00400800D02*
G03*
X01250140Y00400800I-00020140J00000000D01*
G01*
X02609340Y00343000D02*
G03*
X02609340Y00343000I-00020140J00000000D01*
G01*
X02561910D02*
G03*
X02561910Y00343000I-00020140J00000000D01*
G01*
X02514410D02*
G03*
X02514410Y00343000I-00020140J00000000D01*
G01*
X02466910D02*
G03*
X02466910Y00343000I-00020140J00000000D01*
G01*
X02419410D02*
G03*
X02419410Y00343000I-00020140J00000000D01*
G01*
X02656140Y00400800D02*
G03*
X02656140Y00400800I-00020140J00000000D01*
G01*
Y00448230D02*
G03*
X02656140Y00448230I-00020140J00000000D01*
G01*
Y00495730D02*
G03*
X02656140Y00495730I-00020140J00000000D01*
G01*
Y00543230D02*
G03*
X02656140Y00543230I-00020140J00000000D01*
G01*
Y00590730D02*
G03*
X02656140Y00590730I-00020140J00000000D01*
G01*
Y00096800D02*
G03*
X02656140Y00096800I-00020140J00000000D01*
G01*
Y00144230D02*
G03*
X02656140Y00144230I-00020140J00000000D01*
G01*
Y00191730D02*
G03*
X02656140Y00191730I-00020140J00000000D01*
G01*
Y00239230D02*
G03*
X02656140Y00239230I-00020140J00000000D01*
G01*
Y00286730D02*
G03*
X02656140Y00286730I-00020140J00000000D01*
G01*
X02420940Y00040000D02*
G03*
X02420940Y00040000I-00020140J00000000D01*
G01*
X02468370D02*
G03*
X02468370Y00040000I-00020140J00000000D01*
G01*
X02515870D02*
G03*
X02515870Y00040000I-00020140J00000000D01*
G01*
X02563370D02*
G03*
X02563370Y00040000I-00020140J00000000D01*
G01*
X02610870D02*
G03*
X02610870Y00040000I-00020140J00000000D01*
G01*
X02374140Y00096800D02*
G03*
X02374140Y00096800I-00020140J00000000D01*
G01*
Y00144230D02*
G03*
X02374140Y00144230I-00020140J00000000D01*
G01*
Y00191730D02*
G03*
X02374140Y00191730I-00020140J00000000D01*
G01*
Y00239230D02*
G03*
X02374140Y00239230I-00020140J00000000D01*
G01*
Y00286730D02*
G03*
X02374140Y00286730I-00020140J00000000D01*
G01*
Y00400800D02*
G03*
X02374140Y00400800I-00020140J00000000D01*
G01*
Y00448230D02*
G03*
X02374140Y00448230I-00020140J00000000D01*
G01*
Y00495730D02*
G03*
X02374140Y00495730I-00020140J00000000D01*
G01*
Y00543230D02*
G03*
X02374140Y00543230I-00020140J00000000D01*
G01*
Y00590730D02*
G03*
X02374140Y00590730I-00020140J00000000D01*
G01*
X02420940Y00648000D02*
G03*
X02420940Y00648000I-00020140J00000000D01*
G01*
X02468370D02*
G03*
X02468370Y00648000I-00020140J00000000D01*
G01*
X02515870D02*
G03*
X02515870Y00648000I-00020140J00000000D01*
G01*
X02563370D02*
G03*
X02563370Y00648000I-00020140J00000000D01*
G01*
X02610870D02*
G03*
X02610870Y00648000I-00020140J00000000D01*
G01*
X02177340Y00343000D02*
G03*
X02177340Y00343000I-00020140J00000000D01*
G01*
X02129910D02*
G03*
X02129910Y00343000I-00020140J00000000D01*
G01*
X02082410D02*
G03*
X02082410Y00343000I-00020140J00000000D01*
G01*
X02034910D02*
G03*
X02034910Y00343000I-00020140J00000000D01*
G01*
X01987410D02*
G03*
X01987410Y00343000I-00020140J00000000D01*
G01*
X02224140Y00400800D02*
G03*
X02224140Y00400800I-00020140J00000000D01*
G01*
Y00448230D02*
G03*
X02224140Y00448230I-00020140J00000000D01*
G01*
Y00495730D02*
G03*
X02224140Y00495730I-00020140J00000000D01*
G01*
Y00543230D02*
G03*
X02224140Y00543230I-00020140J00000000D01*
G01*
Y00590730D02*
G03*
X02224140Y00590730I-00020140J00000000D01*
G01*
Y00096800D02*
G03*
X02224140Y00096800I-00020140J00000000D01*
G01*
Y00144230D02*
G03*
X02224140Y00144230I-00020140J00000000D01*
G01*
Y00191730D02*
G03*
X02224140Y00191730I-00020140J00000000D01*
G01*
Y00239230D02*
G03*
X02224140Y00239230I-00020140J00000000D01*
G01*
Y00286730D02*
G03*
X02224140Y00286730I-00020140J00000000D01*
G01*
X01988940Y00040000D02*
G03*
X01988940Y00040000I-00020140J00000000D01*
G01*
X02036370D02*
G03*
X02036370Y00040000I-00020140J00000000D01*
G01*
X02083870D02*
G03*
X02083870Y00040000I-00020140J00000000D01*
G01*
X02131370D02*
G03*
X02131370Y00040000I-00020140J00000000D01*
G01*
X02178870D02*
G03*
X02178870Y00040000I-00020140J00000000D01*
G01*
X01942140Y00096800D02*
G03*
X01942140Y00096800I-00020140J00000000D01*
G01*
Y00144230D02*
G03*
X01942140Y00144230I-00020140J00000000D01*
G01*
Y00191730D02*
G03*
X01942140Y00191730I-00020140J00000000D01*
G01*
Y00239230D02*
G03*
X01942140Y00239230I-00020140J00000000D01*
G01*
Y00286730D02*
G03*
X01942140Y00286730I-00020140J00000000D01*
G01*
Y00400800D02*
G03*
X01942140Y00400800I-00020140J00000000D01*
G01*
Y00448230D02*
G03*
X01942140Y00448230I-00020140J00000000D01*
G01*
Y00495730D02*
G03*
X01942140Y00495730I-00020140J00000000D01*
G01*
Y00543230D02*
G03*
X01942140Y00543230I-00020140J00000000D01*
G01*
Y00590730D02*
G03*
X01942140Y00590730I-00020140J00000000D01*
G01*
X01635340Y00343000D02*
G03*
X01635340Y00343000I-00020140J00000000D01*
G01*
X01587910D02*
G03*
X01587910Y00343000I-00020140J00000000D01*
G01*
X01540410D02*
G03*
X01540410Y00343000I-00020140J00000000D01*
G01*
X01492910D02*
G03*
X01492910Y00343000I-00020140J00000000D01*
G01*
X01445410D02*
G03*
X01445410Y00343000I-00020140J00000000D01*
G01*
X01682140Y00400800D02*
G03*
X01682140Y00400800I-00020140J00000000D01*
G01*
Y00448230D02*
G03*
X01682140Y00448230I-00020140J00000000D01*
G01*
Y00495730D02*
G03*
X01682140Y00495730I-00020140J00000000D01*
G01*
Y00543230D02*
G03*
X01682140Y00543230I-00020140J00000000D01*
G01*
Y00590730D02*
G03*
X01682140Y00590730I-00020140J00000000D01*
G01*
Y00096800D02*
G03*
X01682140Y00096800I-00020140J00000000D01*
G01*
Y00144230D02*
G03*
X01682140Y00144230I-00020140J00000000D01*
G01*
Y00191730D02*
G03*
X01682140Y00191730I-00020140J00000000D01*
G01*
Y00239230D02*
G03*
X01682140Y00239230I-00020140J00000000D01*
G01*
Y00286730D02*
G03*
X01682140Y00286730I-00020140J00000000D01*
G01*
X01446940Y00040000D02*
G03*
X01446940Y00040000I-00020140J00000000D01*
G01*
X01494370D02*
G03*
X01494370Y00040000I-00020140J00000000D01*
G01*
X01541870D02*
G03*
X01541870Y00040000I-00020140J00000000D01*
G01*
X01589370D02*
G03*
X01589370Y00040000I-00020140J00000000D01*
G01*
X01636870D02*
G03*
X01636870Y00040000I-00020140J00000000D01*
G01*
X01400140Y00096800D02*
G03*
X01400140Y00096800I-00020140J00000000D01*
G01*
Y00144230D02*
G03*
X01400140Y00144230I-00020140J00000000D01*
G01*
Y00191730D02*
G03*
X01400140Y00191730I-00020140J00000000D01*
G01*
Y00239230D02*
G03*
X01400140Y00239230I-00020140J00000000D01*
G01*
Y00286730D02*
G03*
X01400140Y00286730I-00020140J00000000D01*
G01*
Y00400800D02*
G03*
X01400140Y00400800I-00020140J00000000D01*
G01*
Y00448230D02*
G03*
X01400140Y00448230I-00020140J00000000D01*
G01*
Y00495730D02*
G03*
X01400140Y00495730I-00020140J00000000D01*
G01*
Y00543230D02*
G03*
X01400140Y00543230I-00020140J00000000D01*
G01*
Y00590730D02*
G03*
X01400140Y00590730I-00020140J00000000D01*
G01*
X01446940Y00648000D02*
G03*
X01446940Y00648000I-00020140J00000000D01*
G01*
X01494370D02*
G03*
X01494370Y00648000I-00020140J00000000D01*
G01*
X01541870D02*
G03*
X01541870Y00648000I-00020140J00000000D01*
G01*
X01589370D02*
G03*
X01589370Y00648000I-00020140J00000000D01*
G01*
X01636870D02*
G03*
X01636870Y00648000I-00020140J00000000D01*
G01*
X01205340Y00343000D02*
G03*
X01205340Y00343000I-00020140J00000000D01*
G01*
X01157910D02*
G03*
X01157910Y00343000I-00020140J00000000D01*
G01*
X01110410D02*
G03*
X01110410Y00343000I-00020140J00000000D01*
G01*
X01062910D02*
G03*
X01062910Y00343000I-00020140J00000000D01*
G01*
X01015410D02*
G03*
X01015410Y00343000I-00020140J00000000D01*
G01*
X01250140Y00096800D02*
G03*
X01250140Y00096800I-00020140J00000000D01*
G01*
Y00144230D02*
G03*
X01250140Y00144230I-00020140J00000000D01*
G01*
Y00191730D02*
G03*
X01250140Y00191730I-00020140J00000000D01*
G01*
Y00239230D02*
G03*
X01250140Y00239230I-00020140J00000000D01*
G01*
Y00286730D02*
G03*
X01250140Y00286730I-00020140J00000000D01*
G01*
X01016940Y00040000D02*
G03*
X01016940Y00040000I-00020140J00000000D01*
G01*
X01064370D02*
G03*
X01064370Y00040000I-00020140J00000000D01*
G01*
X01111870D02*
G03*
X01111870Y00040000I-00020140J00000000D01*
G01*
X01159370D02*
G03*
X01159370Y00040000I-00020140J00000000D01*
G01*
X01206870D02*
G03*
X01206870Y00040000I-00020140J00000000D01*
G01*
X00970140Y00096800D02*
G03*
X00970140Y00096800I-00020140J00000000D01*
G01*
Y00144230D02*
G03*
X00970140Y00144230I-00020140J00000000D01*
G01*
Y00191730D02*
G03*
X00970140Y00191730I-00020140J00000000D01*
G01*
Y00239230D02*
G03*
X00970140Y00239230I-00020140J00000000D01*
G01*
Y00286730D02*
G03*
X00970140Y00286730I-00020140J00000000D01*
G01*
Y00400800D02*
G03*
X00970140Y00400800I-00020140J00000000D01*
G01*
Y00448230D02*
G03*
X00970140Y00448230I-00020140J00000000D01*
G01*
Y00495730D02*
G03*
X00970140Y00495730I-00020140J00000000D01*
G01*
Y00543230D02*
G03*
X00970140Y00543230I-00020140J00000000D01*
G01*
Y00590730D02*
G03*
X00970140Y00590730I-00020140J00000000D01*
G01*
X00255910Y00300000D02*
G03*
X00255910Y00300000I-00020140J00000000D01*
G01*
X00208410D02*
G03*
X00208410Y00300000I-00020140J00000000D01*
G01*
X00160910D02*
G03*
X00160910Y00300000I-00020140J00000000D01*
G01*
X00113410D02*
G03*
X00113410Y00300000I-00020140J00000000D01*
G01*
X00300140Y00354230D02*
G03*
X00300140Y00354230I-00020140J00000000D01*
G01*
Y00401730D02*
G03*
X00300140Y00401730I-00020140J00000000D01*
G01*
Y00449230D02*
G03*
X00300140Y00449230I-00020140J00000000D01*
G01*
Y00496730D02*
G03*
X00300140Y00496730I-00020140J00000000D01*
G01*
Y00094230D02*
G03*
X00300140Y00094230I-00020140J00000000D01*
G01*
Y00141730D02*
G03*
X00300140Y00141730I-00020140J00000000D01*
G01*
Y00189230D02*
G03*
X00300140Y00189230I-00020140J00000000D01*
G01*
Y00236730D02*
G03*
X00300140Y00236730I-00020140J00000000D01*
G01*
X00114370Y00040000D02*
G03*
X00114370Y00040000I-00020140J00000000D01*
G01*
X00161870D02*
G03*
X00161870Y00040000I-00020140J00000000D01*
G01*
X00209370D02*
G03*
X00209370Y00040000I-00020140J00000000D01*
G01*
X00256870D02*
G03*
X00256870Y00040000I-00020140J00000000D01*
G01*
X00070140Y00094230D02*
G03*
X00070140Y00094230I-00020140J00000000D01*
G01*
Y00141730D02*
G03*
X00070140Y00141730I-00020140J00000000D01*
G01*
Y00189230D02*
G03*
X00070140Y00189230I-00020140J00000000D01*
G01*
Y00236730D02*
G03*
X00070140Y00236730I-00020140J00000000D01*
G01*
Y00354230D02*
G03*
X00070140Y00354230I-00020140J00000000D01*
G01*
Y00401730D02*
G03*
X00070140Y00401730I-00020140J00000000D01*
G01*
Y00449230D02*
G03*
X00070140Y00449230I-00020140J00000000D01*
G01*
Y00496730D02*
G03*
X00070140Y00496730I-00020140J00000000D01*
G01*
X00113370Y00560000D02*
G03*
X00113370Y00560000I-00020140J00000000D01*
G01*
X00160870D02*
G03*
X00160870Y00560000I-00020140J00000000D01*
G01*
X00208370D02*
G03*
X00208370Y00560000I-00020140J00000000D01*
G01*
X00255870D02*
G03*
X00255870Y00560000I-00020140J00000000D01*
G01*
X00595910Y00300000D02*
G03*
X00595910Y00300000I-00020140J00000000D01*
G01*
X00548410D02*
G03*
X00548410Y00300000I-00020140J00000000D01*
G01*
X00500910D02*
G03*
X00500910Y00300000I-00020140J00000000D01*
G01*
X00453410D02*
G03*
X00453410Y00300000I-00020140J00000000D01*
G01*
X00640140Y00354230D02*
G03*
X00640140Y00354230I-00020140J00000000D01*
G01*
Y00401730D02*
G03*
X00640140Y00401730I-00020140J00000000D01*
G01*
Y00449230D02*
G03*
X00640140Y00449230I-00020140J00000000D01*
G01*
Y00496730D02*
G03*
X00640140Y00496730I-00020140J00000000D01*
G01*
Y00094230D02*
G03*
X00640140Y00094230I-00020140J00000000D01*
G01*
Y00141730D02*
G03*
X00640140Y00141730I-00020140J00000000D01*
G01*
Y00189230D02*
G03*
X00640140Y00189230I-00020140J00000000D01*
G01*
Y00236730D02*
G03*
X00640140Y00236730I-00020140J00000000D01*
G01*
X00454370Y00040000D02*
G03*
X00454370Y00040000I-00020140J00000000D01*
G01*
X00501870D02*
G03*
X00501870Y00040000I-00020140J00000000D01*
G01*
X00549370D02*
G03*
X00549370Y00040000I-00020140J00000000D01*
G01*
X00596870D02*
G03*
X00596870Y00040000I-00020140J00000000D01*
G01*
X00410140Y00094230D02*
G03*
X00410140Y00094230I-00020140J00000000D01*
G01*
Y00141730D02*
G03*
X00410140Y00141730I-00020140J00000000D01*
G01*
Y00189230D02*
G03*
X00410140Y00189230I-00020140J00000000D01*
G01*
Y00236730D02*
G03*
X00410140Y00236730I-00020140J00000000D01*
G01*
Y00354230D02*
G03*
X00410140Y00354230I-00020140J00000000D01*
G01*
Y00401730D02*
G03*
X00410140Y00401730I-00020140J00000000D01*
G01*
Y00449230D02*
G03*
X00410140Y00449230I-00020140J00000000D01*
G01*
Y00496730D02*
G03*
X00410140Y00496730I-00020140J00000000D01*
G01*
X00454370Y00560000D02*
G03*
X00454370Y00560000I-00020140J00000000D01*
G01*
X00501870D02*
G03*
X00501870Y00560000I-00020140J00000000D01*
G01*
X00549370D02*
G03*
X00549370Y00560000I-00020140J00000000D01*
G01*
X00596870D02*
G03*
X00596870Y00560000I-00020140J00000000D01*
G01*
D15*
X00338341Y00705000D02*
Y00712999D01*
D17*
X00344102Y00727058D02*
X00345435Y00728391D01*
X00348101D01*
X00349434Y00727058D01*
Y00721727D01*
X00348101Y00720394D01*
X00345435D01*
X00344102Y00721727D01*
X00341437Y00720394D02*
X00338771D01*
X00340104D01*
Y00728391D01*
X00341437Y00727058D01*
X00330773Y00720394D02*
Y00728391D01*
X00334772Y00724393D01*
X00329440D01*
M02*
